<svg xmlns="http://www.w3.org/2000/svg" xmlns:xlink="http://www.w3.org/1999/xlink" width="144.229" height="33.067" viewBox="0 0 144.229 33.067">
  <defs>
    <clipPath id="clip-path">
      <rect id="사각형_8274" data-name="사각형 8274" width="144.229" height="33.067" fill="none"/>
    </clipPath>
  </defs>
  <g id="logo" transform="translate(0 0)">
    <path id="패스_40521" data-name="패스 40521" d="M126.358,11.578l2.234,1.1,2.184-3.342,2.184,3.342,2.234-1.1-4.418-6.727Z" transform="translate(-68.598 -2.634)" fill="#434547"/>
    <path id="패스_40522" data-name="패스 40522" d="M212.236,9.336l2.184,3.342,2.234-1.1-4.418-6.727-4.418,6.727,2.234,1.1Z" transform="translate(-112.822 -2.634)" fill="#434547"/>
    <g id="그룹_93433" data-name="그룹 93433" transform="translate(0 0)">
      <g id="그룹_93432" data-name="그룹 93432" clip-path="url(#clip-path)">
        <path id="패스_40523" data-name="패스 40523" d="M161.487,13.128a4.3,4.3,0,1,0-4.3-4.3,4.306,4.306,0,0,0,4.3,4.3m0-6.363a2.06,2.06,0,1,1-2.059,2.06,2.062,2.062,0,0,1,2.059-2.06" transform="translate(-85.335 -2.455)" fill="#434547"/>
        <path id="패스_40524" data-name="패스 40524" d="M199.084,26.171h6.075V27.8h-3.118v2.335h6.574v1.666h-6.574v6.337h8.934V35.807h-6.59V34.141h6.59V27.8h-3.118V26.171h4.125V24H198.064a1.232,1.232,0,0,0-1.314,1.226V38.142h2.334Z" transform="translate(-106.813 -13.03)" fill="#434547"/>
        <path id="패스_40525" data-name="패스 40525" d="M164.863,26.16V14.407H147.012V5h-5.239V7.167h2.9v6h0v2.183a1.239,1.239,0,0,0,1.387,1.22v0h5.651v.913H148.6v2.335h6.574V21.49H148.6v6.337h8.934V25.492h-6.59V23.825h6.59V17.488h-3.118v-.913h5.077v0h3.037V26.16Z" transform="translate(-76.967 -2.715)" fill="#434547"/>
        <path id="패스_40526" data-name="패스 40526" d="M240.472,41.312V47.54h9.137V45.2h-6.794V41.312Z" transform="translate(-130.549 -22.428)" fill="#434547"/>
        <path id="패스_40527" data-name="패스 40527" d="M292.768,43.764h-2.344v5.107H301.9V46.535h-9.129Z" transform="translate(-157.668 -23.759)" fill="#434547"/>
        <path id="패스_40528" data-name="패스 40528" d="M271.854,26.177h2.334V20.355H264.5v2.166h7.355Z" transform="translate(-143.593 -11.051)" fill="#434547"/>
        <rect id="사각형_8269" data-name="사각형 8269" width="0.398" height="0.476" transform="translate(96.765 28.036)" fill="#464849"/>
        <path id="패스_40529" data-name="패스 40529" d="M159.324,63.33a1.911,1.911,0,0,0-.428-.176c-.149-.041-.346-.085-.591-.131-.185-.036-.336-.068-.452-.1a1.823,1.823,0,0,1-.332-.115.882.882,0,0,1-.262-.179.5.5,0,0,1-.136-.268.546.546,0,0,1-.012-.112.651.651,0,0,1,.272-.522,1.268,1.268,0,0,1,.8-.217,1.309,1.309,0,0,1,.76.211.714.714,0,0,1,.308.629h.392a1.04,1.04,0,0,0-.38-.824,1.605,1.605,0,0,0-1.079-.327,1.724,1.724,0,0,0-1.082.3.923.923,0,0,0-.268,1.21.875.875,0,0,0,.32.308,1.937,1.937,0,0,0,.422.176q.223.064.579.139.3.064.494.115a1.7,1.7,0,0,1,.356.137.715.715,0,0,1,.259.225.58.58,0,0,1,.1.337.707.707,0,0,1-.277.57,1.277,1.277,0,0,1-.826.228,1.523,1.523,0,0,1-.869-.225.92.92,0,0,1-.38-.717h-.4a1.089,1.089,0,0,0,.434.929,1.859,1.859,0,0,0,1.139.324,1.991,1.991,0,0,0,1.167-.3.957.957,0,0,0,.419-.827.931.931,0,0,0-.121-.492.881.881,0,0,0-.325-.313" transform="translate(-85.022 -33.226)" fill="#464849"/>
        <path id="패스_40530" data-name="패스 40530" d="M166.811,64.022a1.3,1.3,0,0,0-1.01-.4,1.521,1.521,0,0,0-.594.112,1.279,1.279,0,0,0-.455.316,1.412,1.412,0,0,0-.286.471,1.63,1.63,0,0,0-.1.572,1.885,1.885,0,0,0,.085.579,1.26,1.26,0,0,0,.262.46,1.164,1.164,0,0,0,.453.3,1.744,1.744,0,0,0,.636.107,1.281,1.281,0,0,0,1.351-.926h-.4a.775.775,0,0,1-.334.469,1.089,1.089,0,0,1-.612.169.979.979,0,0,1-.775-.31,1.145,1.145,0,0,1-.274-.787h2.424a1.624,1.624,0,0,0-.365-1.14m-2.059.873a1.231,1.231,0,0,1,.329-.7,1.083,1.083,0,0,1,1.45,0,.99.99,0,0,1,.259.7Z" transform="translate(-89.232 -34.542)" fill="#464849"/>
        <path id="패스_40531" data-name="패스 40531" d="M172.724,63.626a1.377,1.377,0,0,0-1.07.412,1.494,1.494,0,0,0-.377,1.049,1.387,1.387,0,0,0,.41,1.074,1.514,1.514,0,0,0,1.037.388,1.408,1.408,0,0,0,1.052-.4,1.445,1.445,0,0,0,.395-1.06,1.507,1.507,0,0,0-.371-1.052,1.377,1.377,0,0,0-1.076-.41m1,1.9a1.1,1.1,0,0,1-.19.374.908.908,0,0,1-.332.262,1.1,1.1,0,0,1-.479.1.981.981,0,0,1-.784-.321,1.259,1.259,0,0,1-.277-.852,1.579,1.579,0,0,1,.06-.444,1.064,1.064,0,0,1,.19-.372.91.91,0,0,1,.335-.26,1.106,1.106,0,0,1,.476-.1,1.211,1.211,0,0,1,.482.088.836.836,0,0,1,.332.249,1.074,1.074,0,0,1,.186.369,1.678,1.678,0,0,1,.06.466,1.576,1.576,0,0,1-.06.439" transform="translate(-92.984 -34.542)" fill="#464849"/>
        <path id="패스_40532" data-name="패스 40532" d="M180.845,65.3a1.108,1.108,0,0,1-.256.757.879.879,0,0,1-.7.292.847.847,0,0,1-.609-.187.734.734,0,0,1-.193-.551v-1.82h-.362v1.826a1.315,1.315,0,0,0,.06.41.843.843,0,0,0,.19.321.879.879,0,0,0,.344.214,1.519,1.519,0,0,0,.516.078,1.151,1.151,0,0,0,.576-.123,2.123,2.123,0,0,0,.431-.337v.385h.362V63.789h-.362Z" transform="translate(-97.03 -34.63)" fill="#464849"/>
        <rect id="사각형_8270" data-name="사각형 8270" width="0.362" height="3.854" transform="translate(84.955 28.078)" fill="#464849"/>
        <rect id="사각형_8271" data-name="사각형 8271" width="0.41" height="3.854" transform="translate(87.812 28.078)" fill="#464849"/>
        <path id="패스_40533" data-name="패스 40533" d="M197.325,64.023a.887.887,0,0,0-.4-.3,1.545,1.545,0,0,0-.549-.093,1.185,1.185,0,0,0-.534.115,1.95,1.95,0,0,0-.473.346V63.7H195v2.773h.362V64.981a2.332,2.332,0,0,1,.015-.289.938.938,0,0,1,.063-.235.825.825,0,0,1,.323-.386.959.959,0,0,1,.546-.155.864.864,0,0,1,.618.185.756.756,0,0,1,.19.565v1.81h.362V64.66a2.01,2.01,0,0,0-.027-.362.658.658,0,0,0-.13-.276" transform="translate(-105.865 -34.542)" fill="#464849"/>
        <path id="패스_40534" data-name="패스 40534" d="M203.776,65.165a1.547,1.547,0,0,0-.329-.136q-.169-.049-.452-.107c-.153-.032-.274-.061-.365-.086a1.684,1.684,0,0,1-.253-.091.5.5,0,0,1-.187-.142.333.333,0,0,1-.069-.212.4.4,0,0,1,.184-.348.9.9,0,0,1,.522-.128,1.064,1.064,0,0,1,.579.139.611.611,0,0,1,.265.444h.368a.914.914,0,0,0-.373-.664,1.458,1.458,0,0,0-.832-.209,1.317,1.317,0,0,0-.8.22.682.682,0,0,0-.3.572.626.626,0,0,0,.094.351.655.655,0,0,0,.247.222,1.564,1.564,0,0,0,.328.126c.117.03.266.061.447.094q.217.038.362.075a1.731,1.731,0,0,1,.265.091.472.472,0,0,1,.19.144.358.358,0,0,1,.069.225.445.445,0,0,1-.2.364.941.941,0,0,1-.573.149,1.116,1.116,0,0,1-.63-.149.8.8,0,0,1-.3-.5h-.368a.924.924,0,0,0,.338.675,1.265,1.265,0,0,0,.85.268,1.771,1.771,0,0,0,.922-.212.663.663,0,0,0,.349-.6.612.612,0,0,0-.093-.348.719.719,0,0,0-.253-.228" transform="translate(-109.48 -34.542)" fill="#464849"/>
        <path id="패스_40535" data-name="패스 40535" d="M208.438,65.353a.629.629,0,0,1-.052-.31v-1.9h.585v-.268h-.585V62.1h-.362v.771h-.44v.268h.44v2.029a.554.554,0,0,0,.139.426.6.6,0,0,0,.416.126,1.711,1.711,0,0,0,.35-.048.433.433,0,0,0,.066-.016V65.4a1.4,1.4,0,0,1-.3.037c-.141,0-.228-.027-.262-.08" transform="translate(-112.695 -33.715)" fill="#464849"/>
        <rect id="사각형_8272" data-name="사각형 8272" width="0.362" height="2.773" transform="translate(96.783 29.159)" fill="#464849"/>
        <path id="패스_40536" data-name="패스 40536" d="M214.373,65.353a.636.636,0,0,1-.051-.31v-1.9h.585v-.268h-.585V62.1h-.362v.771h-.44v.268h.44v2.029a.554.554,0,0,0,.139.426.6.6,0,0,0,.416.126,1.707,1.707,0,0,0,.35-.048.429.429,0,0,0,.066-.016V65.4a1.407,1.407,0,0,1-.3.037q-.211,0-.262-.08" transform="translate(-115.917 -33.715)" fill="#464849"/>
        <path id="패스_40537" data-name="패스 40537" d="M219.659,65.3a1.108,1.108,0,0,1-.256.757.879.879,0,0,1-.7.292.847.847,0,0,1-.609-.187.734.734,0,0,1-.193-.551v-1.82h-.362v1.826a1.315,1.315,0,0,0,.06.41.848.848,0,0,0,.19.321.879.879,0,0,0,.344.214,1.519,1.519,0,0,0,.516.078,1.154,1.154,0,0,0,.576-.123,2.133,2.133,0,0,0,.431-.337v.385h.362V63.789h-.362Z" transform="translate(-118.101 -34.63)" fill="#464849"/>
        <path id="패스_40538" data-name="패스 40538" d="M224.713,65.353a.636.636,0,0,1-.051-.31v-1.9h.585v-.268h-.585V62.1H224.3v.771h-.44v.268h.44v2.029a.552.552,0,0,0,.139.426.6.6,0,0,0,.416.126,1.707,1.707,0,0,0,.35-.048.429.429,0,0,0,.066-.016V65.4a1.407,1.407,0,0,1-.3.037q-.211,0-.262-.08" transform="translate(-121.531 -33.715)" fill="#464849"/>
        <path id="패스_40539" data-name="패스 40539" d="M229.971,64.022a1.3,1.3,0,0,0-1.01-.4,1.52,1.52,0,0,0-.594.112,1.279,1.279,0,0,0-.455.316,1.412,1.412,0,0,0-.286.471,1.63,1.63,0,0,0-.1.572,1.885,1.885,0,0,0,.085.579,1.26,1.26,0,0,0,.262.46,1.164,1.164,0,0,0,.453.3,1.743,1.743,0,0,0,.636.107,1.281,1.281,0,0,0,1.351-.926h-.4a.775.775,0,0,1-.334.469,1.088,1.088,0,0,1-.612.169.979.979,0,0,1-.775-.31,1.145,1.145,0,0,1-.274-.787h2.424a1.624,1.624,0,0,0-.365-1.14m-2.059.873a1.23,1.23,0,0,1,.329-.7,1.083,1.083,0,0,1,1.45,0,.99.99,0,0,1,.259.7Z" transform="translate(-123.521 -34.542)" fill="#464849"/>
        <path id="패스_40540" data-name="패스 40540" d="M239.222,63.626a1.377,1.377,0,0,0-1.07.412,1.493,1.493,0,0,0-.377,1.049,1.387,1.387,0,0,0,.41,1.074,1.514,1.514,0,0,0,1.037.388,1.408,1.408,0,0,0,1.052-.4,1.445,1.445,0,0,0,.395-1.06,1.507,1.507,0,0,0-.371-1.052,1.378,1.378,0,0,0-1.076-.41m1,1.9a1.09,1.09,0,0,1-.19.374.9.9,0,0,1-.331.262,1.1,1.1,0,0,1-.479.1.98.98,0,0,1-.784-.321,1.259,1.259,0,0,1-.277-.852,1.579,1.579,0,0,1,.06-.444,1.065,1.065,0,0,1,.19-.372.91.91,0,0,1,.335-.26,1.105,1.105,0,0,1,.476-.1A1.211,1.211,0,0,1,239.7,64a.831.831,0,0,1,.331.249,1.067,1.067,0,0,1,.187.369,1.679,1.679,0,0,1,.06.466,1.576,1.576,0,0,1-.06.439" transform="translate(-129.085 -34.542)" fill="#464849"/>
        <path id="패스_40541" data-name="패스 40541" d="M245.161,61.446a.8.8,0,0,0-.157.533v.439h-.464v.268H245V65.19h.362V62.685h.6v-.268h-.6v-.342a1.97,1.97,0,0,1,.009-.206.479.479,0,0,1,.045-.158.263.263,0,0,1,.117-.117.463.463,0,0,1,.214-.043,1.014,1.014,0,0,1,.217.027v-.294a1.841,1.841,0,0,0-.3-.021.63.63,0,0,0-.506.185" transform="translate(-132.758 -33.258)" fill="#464849"/>
        <path id="패스_40542" data-name="패스 40542" d="M254.32,61.424h-3.159v.31h1.375v3.544h.41V61.735h1.375Z" transform="translate(-136.352 -33.346)" fill="#464849"/>
        <path id="패스_40543" data-name="패스 40543" d="M259.528,64.022a1.3,1.3,0,0,0-1.01-.4,1.521,1.521,0,0,0-.594.112,1.279,1.279,0,0,0-.455.316,1.419,1.419,0,0,0-.286.471,1.63,1.63,0,0,0-.1.572,1.885,1.885,0,0,0,.085.579,1.26,1.26,0,0,0,.262.46,1.164,1.164,0,0,0,.453.3,1.743,1.743,0,0,0,.636.107,1.281,1.281,0,0,0,1.351-.926h-.4a.778.778,0,0,1-.335.469,1.088,1.088,0,0,1-.612.169.979.979,0,0,1-.775-.31,1.145,1.145,0,0,1-.274-.787h2.424a1.624,1.624,0,0,0-.365-1.14m-2.059.873a1.23,1.23,0,0,1,.329-.7,1.083,1.083,0,0,1,1.45,0,.99.99,0,0,1,.259.7Z" transform="translate(-139.567 -34.542)" fill="#464849"/>
        <path id="패스_40544" data-name="패스 40544" d="M266.193,66.062a1,1,0,0,1-.645.2,1.065,1.065,0,0,1-.47-.1.912.912,0,0,1-.329-.262,1.09,1.09,0,0,1-.19-.374,1.6,1.6,0,0,1,0-.867,1.118,1.118,0,0,1,.19-.378.922.922,0,0,1,.332-.268,1.049,1.049,0,0,1,.467-.1.992.992,0,0,1,.593.171.9.9,0,0,1,.335.487h.368a1.038,1.038,0,0,0-.413-.709,1.493,1.493,0,0,0-.883-.238,1.51,1.51,0,0,0-.609.118,1.281,1.281,0,0,0-.455.324,1.4,1.4,0,0,0-.277.468,1.652,1.652,0,0,0-.093.557,1.821,1.821,0,0,0,.087.576,1.306,1.306,0,0,0,.262.463,1.169,1.169,0,0,0,.449.308,1.715,1.715,0,0,0,.636.109,1.4,1.4,0,0,0,.907-.275,1.254,1.254,0,0,0,.437-.758h-.386a.883.883,0,0,1-.313.546" transform="translate(-143.384 -34.542)" fill="#464849"/>
        <path id="패스_40545" data-name="패스 40545" d="M273.767,62.827a.886.886,0,0,0-.4-.3,1.541,1.541,0,0,0-.548-.093,1.185,1.185,0,0,0-.534.115,1.95,1.95,0,0,0-.473.346V61.425h-.362v3.854h.362V63.786a2.249,2.249,0,0,1,.015-.289.939.939,0,0,1,.063-.235.825.825,0,0,1,.323-.386.959.959,0,0,1,.546-.155.864.864,0,0,1,.618.185.756.756,0,0,1,.19.565v1.81h.362V63.465a2.01,2.01,0,0,0-.027-.362.658.658,0,0,0-.13-.276" transform="translate(-147.365 -33.347)" fill="#464849"/>
        <path id="패스_40546" data-name="패스 40546" d="M280.77,64.023a.886.886,0,0,0-.4-.3,1.541,1.541,0,0,0-.548-.093,1.185,1.185,0,0,0-.534.115,1.95,1.95,0,0,0-.473.346V63.7h-.362v2.773h.362V64.981a2.243,2.243,0,0,1,.015-.289.938.938,0,0,1,.063-.235.826.826,0,0,1,.323-.386.959.959,0,0,1,.546-.155.864.864,0,0,1,.618.185.756.756,0,0,1,.19.565v1.81h.362V64.66a2.01,2.01,0,0,0-.027-.362.658.658,0,0,0-.13-.276" transform="translate(-151.166 -34.542)" fill="#464849"/>
        <path id="패스_40547" data-name="패스 40547" d="M286.45,63.626a1.377,1.377,0,0,0-1.07.412A1.494,1.494,0,0,0,285,65.087a1.387,1.387,0,0,0,.41,1.074,1.514,1.514,0,0,0,1.037.388,1.408,1.408,0,0,0,1.052-.4,1.445,1.445,0,0,0,.395-1.06,1.507,1.507,0,0,0-.371-1.052,1.378,1.378,0,0,0-1.076-.41m1,1.9a1.091,1.091,0,0,1-.19.374.9.9,0,0,1-.331.262,1.1,1.1,0,0,1-.479.1.981.981,0,0,1-.784-.321,1.259,1.259,0,0,1-.277-.852,1.579,1.579,0,0,1,.06-.444,1.065,1.065,0,0,1,.19-.372.91.91,0,0,1,.335-.26,1.1,1.1,0,0,1,.476-.1,1.211,1.211,0,0,1,.482.088.835.835,0,0,1,.332.249,1.075,1.075,0,0,1,.186.369,1.678,1.678,0,0,1,.06.466,1.575,1.575,0,0,1-.06.439" transform="translate(-154.724 -34.542)" fill="#464849"/>
        <rect id="사각형_8273" data-name="사각형 8273" width="0.362" height="3.854" transform="translate(133.739 28.078)" fill="#464849"/>
        <path id="패스_40548" data-name="패스 40548" d="M296.052,63.626a1.377,1.377,0,0,0-1.07.412,1.494,1.494,0,0,0-.377,1.049,1.387,1.387,0,0,0,.41,1.074,1.514,1.514,0,0,0,1.037.388,1.408,1.408,0,0,0,1.052-.4,1.445,1.445,0,0,0,.395-1.06,1.507,1.507,0,0,0-.371-1.052,1.377,1.377,0,0,0-1.076-.41m1,1.9a1.1,1.1,0,0,1-.19.374.907.907,0,0,1-.332.262,1.1,1.1,0,0,1-.479.1.981.981,0,0,1-.784-.321,1.259,1.259,0,0,1-.277-.852,1.579,1.579,0,0,1,.06-.444,1.065,1.065,0,0,1,.19-.372.91.91,0,0,1,.335-.26,1.107,1.107,0,0,1,.476-.1,1.211,1.211,0,0,1,.482.088.836.836,0,0,1,.332.249,1.076,1.076,0,0,1,.186.369,1.68,1.68,0,0,1,.06.466,1.577,1.577,0,0,1-.06.439" transform="translate(-159.937 -34.542)" fill="#464849"/>
        <path id="패스_40549" data-name="패스 40549" d="M304.354,64.189h-.012a1.036,1.036,0,0,0-.458-.412,1.418,1.418,0,0,0-.627-.149,1.688,1.688,0,0,0-.636.109,1.167,1.167,0,0,0-.44.305,1.245,1.245,0,0,0-.253.46,1.983,1.983,0,0,0-.081.581,1.815,1.815,0,0,0,.085.562,1.35,1.35,0,0,0,.259.468,1.185,1.185,0,0,0,.44.321,1.516,1.516,0,0,0,.609.115,1.552,1.552,0,0,0,.642-.137,1.11,1.11,0,0,0,.473-.383,2.664,2.664,0,0,1-.045.517,1.09,1.09,0,0,1-.163.4.781.781,0,0,1-.337.273,1.36,1.36,0,0,1-.558.1,1.519,1.519,0,0,1-.615-.11.557.557,0,0,1-.32-.4h-.385a.652.652,0,0,0,.093.273.894.894,0,0,0,.245.26,1.3,1.3,0,0,0,.41.193,2.076,2.076,0,0,0,.573.072,2.037,2.037,0,0,0,.717-.11,1.077,1.077,0,0,0,.452-.3,1.132,1.132,0,0,0,.229-.442,2.119,2.119,0,0,0,.067-.549V63.7h-.362Zm-.072,1.357a1.11,1.11,0,0,1-.211.372.985.985,0,0,1-.335.251,1.023,1.023,0,0,1-.437.091.954.954,0,0,1-.8-.342,1.433,1.433,0,0,1-.271-.916,1.083,1.083,0,0,1,.3-.8,1.049,1.049,0,0,1,.766-.289.96.96,0,0,1,.775.332,1.273,1.273,0,0,1,.28.851,1.366,1.366,0,0,1-.072.447" transform="translate(-163.868 -34.542)" fill="#464849"/>
        <path id="패스_40550" data-name="패스 40550" d="M310.478,66.172l-1-2.382h-.4l1.212,2.794a1.419,1.419,0,0,0-.1.225,1.665,1.665,0,0,1-.2.4.364.364,0,0,1-.31.142,1.9,1.9,0,0,1-.3-.032v.3a1.6,1.6,0,0,0,.344.037.691.691,0,0,0,.573-.3,1.838,1.838,0,0,0,.184-.311q.088-.182.232-.514l1.163-2.735h-.392Z" transform="translate(-167.792 -34.631)" fill="#464849"/>
        <path id="패스_40551" data-name="패스 40551" d="M270.865,31.224V18.876h-2.36v7.643h-2.733a4.3,4.3,0,1,0-4.826,0H245.7V19.465h-2.36v.916h-2.873a4.3,4.3,0,1,0,0,6.337h2.872v2.138h7.68v6.386h2.36V28.855h9.155v1.784h2.43V28.855h3.544v1.116h-1.976v1.993h3.644a.686.686,0,0,0,.692-.738m-33.3-5.615a2.06,2.06,0,1,1,2.059-2.06,2.062,2.062,0,0,1-2.059,2.06m5.772-1.227h-1.554a4.258,4.258,0,0,0,0-1.666h1.554Zm20.023.639a2.06,2.06,0,1,1,2.059-2.06,2.062,2.062,0,0,1-2.059,2.06" transform="translate(-126.637 -10.129)" fill="#434547"/>
        <path id="패스_40552" data-name="패스 40552" d="M6.407,22.57H4.021A3.852,3.852,0,0,0,0,26.21v5.249A3.852,3.852,0,0,0,4.021,35.1H17.364v4.306H0v4.779H19.086a3.57,3.57,0,0,0,3.6-3.219V33.532a3.277,3.277,0,0,0-3.22-3.25H5.762V27.2H22.689V22.57Z" transform="translate(0 -12.253)" fill="#003883"/>
        <path id="패스_40553" data-name="패스 40553" d="M59.707,0V31.932l-7.266-.009V3.965Z" transform="translate(-28.47 0)" fill="#a2a4a6" fill-rule="evenodd"/>
        <path id="패스_40554" data-name="패스 40554" d="M92.138,11.222,70.363,7.4V5.674L92.138,9.493Z" transform="translate(-38.199 -3.08)" fill="#a2a4a6"/>
        <path id="패스_40555" data-name="패스 40555" d="M92.138,16.837l-21.775-3.82V11.288l21.775,3.819Z" transform="translate(-38.199 -6.128)" fill="#a2a4a6"/>
        <path id="패스_40556" data-name="패스 40556" d="M92.138,5.6,70.363,1.779V.05L92.138,3.869Z" transform="translate(-38.199 -0.027)" fill="#a2a4a6"/>
        <path id="패스_40557" data-name="패스 40557" d="M83.826,19.311l-6.088-1.083L70.814,17V21.78l7.6,1.352V41.159H84.5V24.216l8.09,1.439V20.871Z" transform="translate(-38.444 -9.227)" fill="#e35f19" fill-rule="evenodd"/>
      </g>
    </g>
  </g>
</svg>
