<svg xmlns="http://www.w3.org/2000/svg" xmlns:xlink="http://www.w3.org/1999/xlink" width="118.622" height="27.196" viewBox="0 0 118.622 27.196">
  <defs>
    <clipPath id="clip-path">
      <rect id="사각형_8274" data-name="사각형 8274" width="118.622" height="27.196" fill="none"/>
    </clipPath>
  </defs>
  <g id="logo" transform="translate(0 0)">
    <path id="패스_40521" data-name="패스 40521" d="M126.358,10.384l1.837.9,1.8-2.749,1.8,2.749,1.837-.9-3.633-5.533Z" transform="translate(-78.853 -3.027)" fill="#434547"/>
    <path id="패스_40522" data-name="패스 40522" d="M211.452,8.54l1.8,2.749,1.837-.9-3.633-5.533-3.633,5.533,1.838.9Z" transform="translate(-129.688 -3.027)" fill="#434547"/>
    <g id="그룹_93433" data-name="그룹 93433" transform="translate(0 0)">
      <g id="그룹_93432" data-name="그룹 93432" clip-path="url(#clip-path)">
        <path id="패스_40523" data-name="패스 40523" d="M160.724,11.6a3.538,3.538,0,1,0-3.537-3.538,3.541,3.541,0,0,0,3.537,3.538m0-5.233a1.694,1.694,0,1,1-1.694,1.694,1.7,1.7,0,0,1,1.694-1.694" transform="translate(-98.092 -2.822)" fill="#434547"/>
        <path id="패스_40524" data-name="패스 40524" d="M198.67,25.786h5v1.343H201.1V29.05h5.407v1.37H201.1v5.212h7.348V33.711h-5.42v-1.37h5.42V27.129h-2.564V25.786h3.392V24H197.831a1.013,1.013,0,0,0-1.081,1.009V35.632h1.92Z" transform="translate(-122.781 -14.978)" fill="#434547"/>
        <path id="패스_40525" data-name="패스 40525" d="M160.764,22.4V12.737H146.082V5h-4.309V6.783h2.389v4.936h0v1.8a1.019,1.019,0,0,0,1.141,1v0h4.648v.751h-2.564v1.921h5.407v1.37h-5.407v5.212h7.348V21.854h-5.42v-1.37h5.42V15.271h-2.564v-.751h4.175v0h2.5V22.4Z" transform="translate(-88.473 -3.121)" fill="#434547"/>
        <path id="패스_40526" data-name="패스 40526" d="M240.472,41.312v5.122h7.515V44.513H242.4v-3.2Z" transform="translate(-150.065 -25.781)" fill="#434547"/>
        <path id="패스_40527" data-name="패스 40527" d="M292.352,43.764h-1.928v4.2h9.435V46.043h-7.508Z" transform="translate(-181.238 -27.31)" fill="#434547"/>
        <path id="패스_40528" data-name="패스 40528" d="M270.548,25.143h1.92V20.355H264.5v1.782h6.049Z" transform="translate(-165.059 -12.703)" fill="#434547"/>
        <rect id="사각형_8269" data-name="사각형 8269" width="0.327" height="0.392" transform="translate(79.585 23.058)" fill="#464849"/>
        <path id="패스_40529" data-name="패스 40529" d="M158.842,62.952a1.572,1.572,0,0,0-.352-.145c-.123-.034-.284-.07-.486-.108-.152-.029-.276-.056-.372-.079a1.5,1.5,0,0,1-.273-.095.725.725,0,0,1-.215-.147.415.415,0,0,1-.112-.22.449.449,0,0,1-.01-.092.535.535,0,0,1,.223-.43,1.043,1.043,0,0,1,.659-.178,1.077,1.077,0,0,1,.625.174.587.587,0,0,1,.253.518h.322a.855.855,0,0,0-.312-.678,1.32,1.32,0,0,0-.888-.269,1.418,1.418,0,0,0-.89.249.759.759,0,0,0-.221.995.719.719,0,0,0,.263.253,1.593,1.593,0,0,0,.347.145q.183.053.476.115.248.052.406.094a1.4,1.4,0,0,1,.292.112.588.588,0,0,1,.213.185.477.477,0,0,1,.079.277.582.582,0,0,1-.228.469,1.051,1.051,0,0,1-.679.187,1.252,1.252,0,0,1-.714-.185.756.756,0,0,1-.312-.59h-.327a.9.9,0,0,0,.357.764,1.529,1.529,0,0,0,.937.266,1.638,1.638,0,0,0,.959-.244.787.787,0,0,0,.345-.68.766.766,0,0,0-.1-.4.724.724,0,0,0-.268-.258" transform="translate(-97.732 -38.193)" fill="#464849"/>
        <path id="패스_40530" data-name="패스 40530" d="M166.377,63.952a1.072,1.072,0,0,0-.83-.326,1.251,1.251,0,0,0-.488.092,1.052,1.052,0,0,0-.374.26,1.161,1.161,0,0,0-.235.388,1.341,1.341,0,0,0-.082.471,1.55,1.55,0,0,0,.07.476,1.036,1.036,0,0,0,.215.379.957.957,0,0,0,.372.251,1.434,1.434,0,0,0,.523.088,1.054,1.054,0,0,0,1.111-.762h-.333a.637.637,0,0,1-.275.385.9.9,0,0,1-.5.139.805.805,0,0,1-.637-.255.942.942,0,0,1-.226-.647h1.993a1.336,1.336,0,0,0-.3-.938m-1.693.718a1.012,1.012,0,0,1,.27-.577.891.891,0,0,1,1.193,0,.814.814,0,0,1,.213.577Z" transform="translate(-102.572 -39.705)" fill="#464849"/>
        <path id="패스_40531" data-name="패스 40531" d="M172.467,63.626a1.132,1.132,0,0,0-.88.339,1.228,1.228,0,0,0-.31.863,1.141,1.141,0,0,0,.337.883,1.246,1.246,0,0,0,.853.319,1.158,1.158,0,0,0,.865-.33,1.189,1.189,0,0,0,.325-.872,1.239,1.239,0,0,0-.3-.865,1.133,1.133,0,0,0-.885-.337m.823,1.563a.9.9,0,0,1-.156.308.746.746,0,0,1-.273.216.9.9,0,0,1-.394.079.807.807,0,0,1-.645-.264,1.036,1.036,0,0,1-.228-.7,1.3,1.3,0,0,1,.05-.365.875.875,0,0,1,.156-.306.748.748,0,0,1,.275-.214.91.91,0,0,1,.392-.079,1,1,0,0,1,.4.073.687.687,0,0,1,.273.2.884.884,0,0,1,.153.3,1.381,1.381,0,0,1,.05.383,1.3,1.3,0,0,1-.05.361" transform="translate(-106.885 -39.705)" fill="#464849"/>
        <path id="패스_40532" data-name="패스 40532" d="M180.469,65.031a.911.911,0,0,1-.211.623.723.723,0,0,1-.573.24.7.7,0,0,1-.5-.154.6.6,0,0,1-.159-.453v-1.5h-.3v1.5a1.082,1.082,0,0,0,.05.337.693.693,0,0,0,.156.264.723.723,0,0,0,.283.176,1.25,1.25,0,0,0,.424.064.946.946,0,0,0,.473-.1,1.746,1.746,0,0,0,.355-.277v.317h.3V63.789h-.3Z" transform="translate(-111.535 -39.807)" fill="#464849"/>
        <rect id="사각형_8270" data-name="사각형 8270" width="0.297" height="3.17" transform="translate(69.872 23.093)" fill="#464849"/>
        <rect id="사각형_8271" data-name="사각형 8271" width="0.337" height="3.17" transform="translate(72.221 23.093)" fill="#464849"/>
        <path id="패스_40533" data-name="패스 40533" d="M196.913,63.953a.73.73,0,0,0-.332-.249,1.271,1.271,0,0,0-.451-.077.975.975,0,0,0-.439.094,1.6,1.6,0,0,0-.389.284v-.317H195v2.281h.3V64.741a1.918,1.918,0,0,1,.012-.238.771.771,0,0,1,.052-.194.679.679,0,0,1,.265-.317.789.789,0,0,1,.449-.127.711.711,0,0,1,.508.152.622.622,0,0,1,.156.464v1.488h.3V64.477a1.652,1.652,0,0,0-.022-.3.541.541,0,0,0-.107-.227" transform="translate(-121.691 -39.706)" fill="#464849"/>
        <path id="패스_40534" data-name="패스 40534" d="M203.4,64.892a1.272,1.272,0,0,0-.27-.112q-.139-.04-.372-.088c-.126-.027-.226-.05-.3-.071a1.385,1.385,0,0,1-.208-.075.41.41,0,0,1-.154-.117.274.274,0,0,1-.057-.174.332.332,0,0,1,.151-.286.74.74,0,0,1,.429-.106.875.875,0,0,1,.476.114.5.5,0,0,1,.218.365h.3a.752.752,0,0,0-.307-.546,1.2,1.2,0,0,0-.684-.172,1.083,1.083,0,0,0-.659.181.561.561,0,0,0-.243.471.515.515,0,0,0,.077.289.539.539,0,0,0,.2.183,1.286,1.286,0,0,0,.27.1c.1.025.218.05.367.077q.178.031.3.062a1.424,1.424,0,0,1,.218.075.388.388,0,0,1,.156.119.3.3,0,0,1,.057.185.366.366,0,0,1-.164.3.774.774,0,0,1-.471.123.918.918,0,0,1-.518-.123.661.661,0,0,1-.25-.414h-.3a.76.76,0,0,0,.278.555,1.04,1.04,0,0,0,.7.22,1.457,1.457,0,0,0,.759-.174.545.545,0,0,0,.287-.491.5.5,0,0,0-.077-.286.592.592,0,0,0-.208-.187" transform="translate(-125.847 -39.705)" fill="#464849"/>
        <path id="패스_40535" data-name="패스 40535" d="M208.287,64.776a.518.518,0,0,1-.042-.255V62.958h.481v-.22h-.481V62.1h-.3v.634h-.362v.22h.362v1.668a.455.455,0,0,0,.114.35.493.493,0,0,0,.342.1,1.407,1.407,0,0,0,.288-.039.355.355,0,0,0,.054-.014v-.215a1.151,1.151,0,0,1-.243.031c-.116,0-.187-.022-.215-.066" transform="translate(-129.542 -38.755)" fill="#464849"/>
        <rect id="사각형_8272" data-name="사각형 8272" width="0.297" height="2.281" transform="translate(79.6 23.982)" fill="#464849"/>
        <path id="패스_40536" data-name="패스 40536" d="M214.222,64.776a.523.523,0,0,1-.042-.255V62.958h.481v-.22h-.481V62.1h-.3v.634h-.362v.22h.362v1.668a.455.455,0,0,0,.114.35.494.494,0,0,0,.342.1,1.4,1.4,0,0,0,.288-.039.353.353,0,0,0,.055-.014v-.215a1.157,1.157,0,0,1-.243.031q-.174,0-.216-.066" transform="translate(-133.246 -38.755)" fill="#464849"/>
        <path id="패스_40537" data-name="패스 40537" d="M219.283,65.031a.911.911,0,0,1-.211.623.723.723,0,0,1-.573.24.7.7,0,0,1-.5-.154.6.6,0,0,1-.159-.453v-1.5h-.3v1.5a1.082,1.082,0,0,0,.05.337.7.7,0,0,0,.156.264.723.723,0,0,0,.283.176,1.25,1.25,0,0,0,.424.064.949.949,0,0,0,.474-.1,1.755,1.755,0,0,0,.354-.277v.317h.3V63.789h-.3Z" transform="translate(-135.757 -39.807)" fill="#464849"/>
        <path id="패스_40538" data-name="패스 40538" d="M224.562,64.776a.523.523,0,0,1-.042-.255V62.958H225v-.22h-.481V62.1h-.3v.634h-.362v.22h.362v1.668a.454.454,0,0,0,.114.35.492.492,0,0,0,.342.1,1.4,1.4,0,0,0,.288-.039.353.353,0,0,0,.055-.014v-.215a1.157,1.157,0,0,1-.243.031q-.174,0-.216-.066" transform="translate(-139.699 -38.755)" fill="#464849"/>
        <path id="패스_40539" data-name="패스 40539" d="M229.537,63.952a1.072,1.072,0,0,0-.83-.326,1.25,1.25,0,0,0-.488.092,1.052,1.052,0,0,0-.374.26,1.161,1.161,0,0,0-.235.388,1.341,1.341,0,0,0-.082.471,1.55,1.55,0,0,0,.07.476,1.036,1.036,0,0,0,.215.379.957.957,0,0,0,.372.251,1.434,1.434,0,0,0,.523.088,1.054,1.054,0,0,0,1.111-.762h-.333a.637.637,0,0,1-.275.385.9.9,0,0,1-.5.139.805.805,0,0,1-.637-.255.942.942,0,0,1-.226-.647h1.993a1.336,1.336,0,0,0-.3-.938m-1.693.718a1.012,1.012,0,0,1,.27-.577.891.891,0,0,1,1.193,0,.814.814,0,0,1,.213.577Z" transform="translate(-141.987 -39.705)" fill="#464849"/>
        <path id="패스_40540" data-name="패스 40540" d="M238.965,63.626a1.132,1.132,0,0,0-.88.339,1.228,1.228,0,0,0-.31.863,1.141,1.141,0,0,0,.337.883,1.246,1.246,0,0,0,.853.319,1.158,1.158,0,0,0,.865-.33,1.189,1.189,0,0,0,.325-.872,1.239,1.239,0,0,0-.3-.865,1.133,1.133,0,0,0-.885-.337m.823,1.563a.9.9,0,0,1-.156.308.742.742,0,0,1-.273.216.9.9,0,0,1-.394.079.806.806,0,0,1-.645-.264,1.036,1.036,0,0,1-.228-.7,1.3,1.3,0,0,1,.05-.365.875.875,0,0,1,.156-.306.749.749,0,0,1,.275-.214.909.909,0,0,1,.392-.079,1,1,0,0,1,.4.073.683.683,0,0,1,.273.2.878.878,0,0,1,.154.3,1.381,1.381,0,0,1,.05.383,1.3,1.3,0,0,1-.05.361" transform="translate(-148.382 -39.705)" fill="#464849"/>
        <path id="패스_40541" data-name="패스 40541" d="M245.051,61.413a.66.66,0,0,0-.129.438v.361h-.382v.22h.382v2.061h.3V62.432h.5v-.22h-.5V61.93a1.62,1.62,0,0,1,.008-.17.394.394,0,0,1,.037-.13.216.216,0,0,1,.1-.1.381.381,0,0,1,.176-.035.834.834,0,0,1,.179.022v-.242a1.514,1.514,0,0,0-.248-.018.518.518,0,0,0-.417.152" transform="translate(-152.604 -38.23)" fill="#464849"/>
        <path id="패스_40542" data-name="패스 40542" d="M253.759,61.424h-2.6v.255h1.131v2.915h.337V61.679h1.13Z" transform="translate(-156.736 -38.331)" fill="#464849"/>
        <path id="패스_40543" data-name="패스 40543" d="M259.094,63.952a1.072,1.072,0,0,0-.831-.326,1.251,1.251,0,0,0-.488.092,1.052,1.052,0,0,0-.374.26,1.168,1.168,0,0,0-.235.388,1.341,1.341,0,0,0-.082.471,1.549,1.549,0,0,0,.07.476,1.036,1.036,0,0,0,.215.379.957.957,0,0,0,.372.251,1.434,1.434,0,0,0,.523.088,1.054,1.054,0,0,0,1.111-.762h-.332a.639.639,0,0,1-.275.385.9.9,0,0,1-.5.139.805.805,0,0,1-.637-.255.942.942,0,0,1-.226-.647h1.993a1.336,1.336,0,0,0-.3-.938m-1.693.718a1.012,1.012,0,0,1,.27-.577.891.891,0,0,1,1.193,0,.814.814,0,0,1,.213.577Z" transform="translate(-160.431 -39.705)" fill="#464849"/>
        <path id="패스_40544" data-name="패스 40544" d="M265.824,65.629a.823.823,0,0,1-.53.163.876.876,0,0,1-.387-.079.75.75,0,0,1-.27-.216.9.9,0,0,1-.156-.308,1.315,1.315,0,0,1,0-.713.919.919,0,0,1,.156-.311.758.758,0,0,1,.273-.22.862.862,0,0,1,.384-.081.816.816,0,0,1,.488.141.743.743,0,0,1,.276.4h.3a.854.854,0,0,0-.34-.583,1.228,1.228,0,0,0-.726-.2,1.242,1.242,0,0,0-.5.1,1.054,1.054,0,0,0-.374.267,1.148,1.148,0,0,0-.228.385,1.359,1.359,0,0,0-.077.458,1.5,1.5,0,0,0,.072.473,1.074,1.074,0,0,0,.215.381.961.961,0,0,0,.37.253,1.41,1.41,0,0,0,.523.09,1.152,1.152,0,0,0,.746-.226,1.031,1.031,0,0,0,.359-.623h-.317a.726.726,0,0,1-.258.449" transform="translate(-164.818 -39.705)" fill="#464849"/>
        <path id="패스_40545" data-name="패스 40545" d="M273.355,62.578a.729.729,0,0,0-.332-.249,1.267,1.267,0,0,0-.451-.077.975.975,0,0,0-.439.094,1.6,1.6,0,0,0-.389.284V61.425h-.3V64.6h.3V63.366a1.849,1.849,0,0,1,.012-.238.772.772,0,0,1,.052-.194.679.679,0,0,1,.265-.317.788.788,0,0,1,.449-.127.711.711,0,0,1,.508.152.621.621,0,0,1,.156.464V64.6h.3V63.1a1.654,1.654,0,0,0-.022-.3.541.541,0,0,0-.107-.227" transform="translate(-169.395 -38.332)" fill="#464849"/>
        <path id="패스_40546" data-name="패스 40546" d="M280.358,63.953a.729.729,0,0,0-.332-.249,1.267,1.267,0,0,0-.451-.077.975.975,0,0,0-.439.094,1.6,1.6,0,0,0-.389.284v-.317h-.3v2.281h.3V64.741a1.843,1.843,0,0,1,.012-.238.77.77,0,0,1,.052-.194.679.679,0,0,1,.265-.317.789.789,0,0,1,.449-.127.711.711,0,0,1,.508.152.621.621,0,0,1,.156.464v1.488h.3V64.477a1.651,1.651,0,0,0-.022-.3.541.541,0,0,0-.107-.227" transform="translate(-173.765 -39.706)" fill="#464849"/>
        <path id="패스_40547" data-name="패스 40547" d="M286.193,63.626a1.132,1.132,0,0,0-.88.339,1.229,1.229,0,0,0-.31.863,1.141,1.141,0,0,0,.337.883,1.246,1.246,0,0,0,.853.319,1.158,1.158,0,0,0,.865-.33,1.189,1.189,0,0,0,.325-.872,1.239,1.239,0,0,0-.3-.865,1.133,1.133,0,0,0-.885-.337m.823,1.563a.9.9,0,0,1-.156.308.742.742,0,0,1-.273.216.9.9,0,0,1-.394.079.806.806,0,0,1-.645-.264,1.036,1.036,0,0,1-.228-.7,1.3,1.3,0,0,1,.05-.365.876.876,0,0,1,.156-.306.749.749,0,0,1,.275-.214.909.909,0,0,1,.392-.079,1,1,0,0,1,.4.073.687.687,0,0,1,.273.2.884.884,0,0,1,.153.3,1.38,1.38,0,0,1,.05.383,1.3,1.3,0,0,1-.05.361" transform="translate(-177.855 -39.705)" fill="#464849"/>
        <rect id="사각형_8273" data-name="사각형 8273" width="0.297" height="3.17" transform="translate(109.995 23.093)" fill="#464849"/>
        <path id="패스_40548" data-name="패스 40548" d="M295.795,63.626a1.132,1.132,0,0,0-.88.339,1.228,1.228,0,0,0-.31.863,1.141,1.141,0,0,0,.337.883,1.245,1.245,0,0,0,.853.319,1.158,1.158,0,0,0,.865-.33,1.189,1.189,0,0,0,.325-.872,1.239,1.239,0,0,0-.3-.865,1.133,1.133,0,0,0-.885-.337m.823,1.563a.9.9,0,0,1-.156.308.746.746,0,0,1-.273.216.9.9,0,0,1-.394.079.806.806,0,0,1-.645-.264,1.036,1.036,0,0,1-.228-.7,1.3,1.3,0,0,1,.05-.365.876.876,0,0,1,.156-.306.749.749,0,0,1,.275-.214.91.91,0,0,1,.392-.079,1,1,0,0,1,.4.073.687.687,0,0,1,.273.2.885.885,0,0,1,.153.3,1.382,1.382,0,0,1,.05.383,1.3,1.3,0,0,1-.05.361" transform="translate(-183.847 -39.705)" fill="#464849"/>
        <path id="패스_40549" data-name="패스 40549" d="M303.909,64.089h-.01a.852.852,0,0,0-.377-.339,1.166,1.166,0,0,0-.515-.123,1.388,1.388,0,0,0-.523.09.96.96,0,0,0-.362.251,1.023,1.023,0,0,0-.208.379,1.63,1.63,0,0,0-.067.478,1.493,1.493,0,0,0,.07.462,1.111,1.111,0,0,0,.213.385.975.975,0,0,0,.362.264,1.247,1.247,0,0,0,.5.095,1.277,1.277,0,0,0,.528-.112.913.913,0,0,0,.389-.315,2.19,2.19,0,0,1-.037.425.9.9,0,0,1-.134.33.642.642,0,0,1-.277.224,1.118,1.118,0,0,1-.459.082,1.249,1.249,0,0,1-.506-.09.458.458,0,0,1-.263-.328h-.317a.537.537,0,0,0,.076.225.735.735,0,0,0,.2.214,1.066,1.066,0,0,0,.337.159A1.708,1.708,0,0,0,303,66.9a1.675,1.675,0,0,0,.59-.09.886.886,0,0,0,.372-.248.932.932,0,0,0,.188-.364,1.743,1.743,0,0,0,.055-.451V63.688h-.3Zm-.059,1.116a.913.913,0,0,1-.174.306.81.81,0,0,1-.275.207.841.841,0,0,1-.359.075.785.785,0,0,1-.655-.282,1.178,1.178,0,0,1-.223-.753.891.891,0,0,1,.248-.656.863.863,0,0,1,.63-.238.79.79,0,0,1,.637.273,1.047,1.047,0,0,1,.23.7,1.123,1.123,0,0,1-.059.368" transform="translate(-188.366 -39.706)" fill="#464849"/>
        <path id="패스_40550" data-name="패스 40550" d="M310.228,65.749l-.823-1.959h-.332l1,2.3a1.167,1.167,0,0,0-.079.185,1.37,1.37,0,0,1-.166.328.3.3,0,0,1-.255.117,1.563,1.563,0,0,1-.248-.027v.247a1.316,1.316,0,0,0,.283.03.568.568,0,0,0,.471-.251,1.513,1.513,0,0,0,.151-.256q.072-.149.191-.423l.957-2.25h-.322Z" transform="translate(-192.876 -39.808)" fill="#464849"/>
        <path id="패스_40551" data-name="패스 40551" d="M264.189,28.993V18.838h-1.941v6.286H260a3.536,3.536,0,1,0-3.969,0H243.489v-5.8h-1.941v.753h-2.363a3.538,3.538,0,1,0,0,5.212h2.362v1.758h6.317V32.3h1.941V27.044h7.529v1.467h2V27.044h2.915v.918h-1.625V29.6h3a.564.564,0,0,0,.569-.607M236.8,24.375a1.694,1.694,0,1,1,1.693-1.694,1.7,1.7,0,0,1-1.693,1.694m4.747-1.009H240.27a3.5,3.5,0,0,0,0-1.37h1.278Zm16.468.525A1.694,1.694,0,1,1,259.71,22.2a1.7,1.7,0,0,1-1.693,1.694" transform="translate(-145.568 -11.643)" fill="#434547"/>
        <path id="패스_40552" data-name="패스 40552" d="M5.27,22.57H3.307A3.168,3.168,0,0,0,0,25.564v4.317a3.168,3.168,0,0,0,3.307,2.994H14.281v3.542H0v3.931H15.7A2.936,2.936,0,0,0,18.661,37.7V31.585a2.7,2.7,0,0,0-2.648-2.673H4.739V26.381H18.661V22.57Z" transform="translate(0 -14.085)" fill="#003883"/>
        <path id="패스_40553" data-name="패스 40553" d="M58.417,0V26.263l-5.976-.008V3.261Z" transform="translate(-32.726 0)" fill="#a2a4a6" fill-rule="evenodd"/>
        <path id="패스_40554" data-name="패스 40554" d="M88.272,10.237,70.363,7.1V5.674L88.272,8.815Z" transform="translate(-43.91 -3.54)" fill="#a2a4a6"/>
        <path id="패스_40555" data-name="패스 40555" d="M88.272,15.851,70.363,12.71V11.288l17.909,3.141Z" transform="translate(-43.91 -7.044)" fill="#a2a4a6"/>
        <path id="패스_40556" data-name="패스 40556" d="M88.272,4.613,70.363,1.472V.05L88.272,3.191Z" transform="translate(-43.91 -0.031)" fill="#a2a4a6"/>
        <path id="패스_40557" data-name="패스 40557" d="M81.516,18.9l-5.007-.891L70.814,17v3.935l6.248,1.112V36.869h5.007V22.934l6.653,1.184V20.183Z" transform="translate(-44.191 -10.606)" fill="#e35f19" fill-rule="evenodd"/>
      </g>
    </g>
  </g>
</svg>
