<svg xmlns="http://www.w3.org/2000/svg" width="14.225" height="20.745" viewBox="0 0 14.225 20.745">
  <g id="free-icon-green-energy-1150514" transform="translate(0 0)">
    <path id="패스_42210" data-name="패스 42210" d="M99.709,120.914H98.176v.1a.988.988,0,0,0,.987.987H100.7v-.1A.989.989,0,0,0,99.709,120.914Zm0,0" transform="translate(-94.198 -116.015)" fill="#fff"/>
    <path id="패스_42211" data-name="패스 42211" d="M193.223,194.619v-.1H191.69a.989.989,0,0,0-.987.987v.1h1.533A.989.989,0,0,0,193.223,194.619Zm0,0" transform="translate(-182.976 -186.638)" fill="#fff"/>
    <path id="패스_42212" data-name="패스 42212" d="M101.695,394.711h5.983v1.644h-5.983Zm0,0" transform="translate(-97.574 -378.719)" fill="#fff"/>
    <path id="패스_42213" data-name="패스 42213" d="M121.121,466.086a1.412,1.412,0,0,0,1.411,1.411h1.588a1.412,1.412,0,0,0,1.411-1.411v-.469h-4.409Zm0,0" transform="translate(-116.213 -446.752)" fill="#fff"/>
    <path id="패스_42214" data-name="패스 42214" d="M12.161,2.1A7.112,7.112,0,1,0,3.638,13.322a1.931,1.931,0,0,1,.976,1.442H6.5v-7.5H4.965A2.218,2.218,0,0,1,2.749,5.049V4.334a.615.615,0,0,1,.614-.614H5.511A2.219,2.219,0,0,1,7.727,5.936v1A2.2,2.2,0,0,1,8.714,6.7h2.147a.615.615,0,0,1,.614.614v.714a2.219,2.219,0,0,1-2.216,2.216H7.727v4.517H9.611a1.912,1.912,0,0,1,.965-1.436A7.115,7.115,0,0,0,12.161,2.1Zm0,0" transform="translate(0)" fill="#fff"/>
  </g>
</svg>
