<svg id="free-icon-building-1026955" xmlns="http://www.w3.org/2000/svg" width="20.09" height="20.09" viewBox="0 0 20.09 20.09">
  <g id="그룹_94510" data-name="그룹 94510">
    <path id="패스_42190" data-name="패스 42190" d="M19,18.913V0h-3.3L11.324,4.594V18.913H10.147V5.64L5.768,10.228v8.685h-3V17.667a2.178,2.178,0,1,0-1.177,0v1.246H0V20.09H20.09V18.913ZM8.548,16.742H7.371V15.068H8.548Zm0-3.767H7.371V11.3H8.548Zm6.092,3.767H13.463V15.068h1.177Zm0-3.767H13.463V11.3h1.177Zm0-3.767H13.463V7.534h1.177Zm2.225,7.534H15.688V15.068h1.177Zm0-3.767H15.688V11.3h1.177Zm0-3.767H15.688V7.534h1.177Zm0-3.767H15.688V3.767h1.177Z" fill="#fff"/>
  </g>
</svg>
