<svg id="print-cp2-icon1" xmlns="http://www.w3.org/2000/svg" width="18.791" height="18.791" viewBox="0 0 18.791 18.791">
  <path id="패스_32760" data-name="패스 32760" d="M9.294,13.831a.589.589,0,0,0-.53-.331H1.654a.589.589,0,0,0-.589.589,7.712,7.712,0,0,0,11.043,6.895.589.589,0,0,0,.276-.789Z" transform="translate(-0.229 -2.949)" fill="#fff"/>
  <path id="패스_32761" data-name="패스 32761" d="M14.089,1.78a.589.589,0,0,0-.589.589V9.386a.591.591,0,0,0,.059.257l3.071,6.323a.588.588,0,0,0,.53.332.581.581,0,0,0,.255-.058A7.558,7.558,0,0,0,21.74,9.386,7.637,7.637,0,0,0,14.089,1.78Z" transform="translate(-2.949 -0.383)" fill="#fff"/>
  <path id="패스_32762" data-name="패스 32762" d="M8.24,7.651V.589A.589.589,0,0,0,7.651,0,7.66,7.66,0,0,0,0,7.651a.589.589,0,0,0,.589.589H7.651A.589.589,0,0,0,8.24,7.651Z" fill="#fff"/>
</svg>
