<svg xmlns="http://www.w3.org/2000/svg" width="18" height="22.372" viewBox="0 0 18 22.372">
  <path id="print-cp2-icon2" d="M177.719,41.886h-1.406V40.409a1.89,1.89,0,0,0,1.629-1.274,1.59,1.59,0,0,0-.749-1.785,1.324,1.324,0,0,0,.406-1.6,1.8,1.8,0,0,0-3.135,0,1.324,1.324,0,0,0,.406,1.6,1.59,1.59,0,0,0-.749,1.785,1.89,1.89,0,0,0,1.629,1.273v1.477h-.844v-1.2a2.262,2.262,0,0,1-1.355-1.523,1.979,1.979,0,0,1,.558-1.86,1.719,1.719,0,0,1-.257-1.492,2,2,0,0,1,1.055-1.2V23.891h-3.094V21.459h-2.531V20.243a.284.284,0,0,0-.562,0v1.216h-2.531v2.432h-3.094V34.609a2,2,0,0,1,1.055,1.2,1.719,1.719,0,0,1-.257,1.492,1.979,1.979,0,0,1,.558,1.86,2.262,2.262,0,0,1-1.355,1.523v1.2h-.844V40.409a1.89,1.89,0,0,0,1.629-1.273,1.59,1.59,0,0,0-.749-1.785,1.324,1.324,0,0,0,.406-1.6,1.8,1.8,0,0,0-3.135,0,1.324,1.324,0,0,0,.406,1.6,1.589,1.589,0,0,0-.749,1.785,1.89,1.89,0,0,0,1.629,1.273v1.477h-1.406a.246.246,0,1,0,0,.486h17.438a.246.246,0,1,0,0-.486Zm-9.562-16.779h1.687V27.3h-1.687Zm0,3.4h1.687V30.7h-1.687Zm0,3.4h1.687V34.1h-1.687Zm-3.375-6.809h1.688V27.3h-1.687Zm0,3.4h1.688V30.7h-1.687Zm0,3.4h1.688V34.1h-1.687Zm3.938,9.97h-2.813V38.238h2.813Zm-1.667-4.134h-1.132a3.168,3.168,0,0,1,6.162,0h-1.132a2.03,2.03,0,0,0-3.9,0Zm5.042,4.134h-2.812V38.238h2.812Zm1.125-7.782h-1.687V31.916h1.687Zm0-3.4h-1.687V28.511h1.687Zm0-3.4h-1.687V25.107h1.687Z" transform="translate(-160 -20)" fill="#fff"/>
</svg>
