<svg xmlns="http://www.w3.org/2000/svg" width="52.584" height="49.111" viewBox="0 0 52.584 49.111">
  <g id="title-icon" transform="translate(0 -16.908)">
    <path id="패스_40898" data-name="패스 40898" d="M260.279,299.592l1.152-.375,12.265-11.75a4.859,4.859,0,0,1,6.748,6.994l-11.795,11.454" transform="translate(-233.547 -241.559)" fill="#ffcbbe"/>
    <g id="그룹_94336" data-name="그룹 94336" transform="translate(8.361 16.908)">
      <path id="패스_40899" data-name="패스 40899" d="M159.642,49.961V79.253H129.271V49.961l2.636-1.526,12.549-7.265Z" transform="translate(-124.355 -38.678)" fill="#f9f6f9"/>
      <path id="패스_40900" data-name="패스 40900" d="M159.643,49.961v4.994l-15.186-8.792-15.185,8.792V49.961l2.636-1.526,12.549-7.266Z" transform="translate(-124.355 -38.677)" fill="#dddaec"/>
      <path id="패스_40901" data-name="패스 40901" d="M131.907,111.914v30.818h-2.636V113.44Z" transform="translate(-124.355 -102.157)" fill="#dddaec"/>
      <path id="패스_40902" data-name="패스 40902" d="M118.213,31.949l-16.7-9.67-16.7,9.67a1.8,1.8,0,0,1-2.466-.658L81.651,30.1a1.8,1.8,0,0,1,.658-2.466l17.952-10.393a2.492,2.492,0,0,1,2.5,0L120.71,27.637a1.8,1.8,0,0,1,.658,2.466l-.689,1.189A1.8,1.8,0,0,1,118.213,31.949Z" transform="translate(-81.407 -16.908)" fill="#dd636e"/>
      <path id="패스_40903" data-name="패스 40903" d="M103.641,17.761a2.477,2.477,0,0,0-1.177.335L84.512,28.488a1.8,1.8,0,0,0-.658,2.466l.658,1.136a1.807,1.807,0,0,1-2.175-.794l-.689-1.19a1.8,1.8,0,0,1,.658-2.466l17.952-10.392a2.49,2.49,0,0,1,2.5,0Z" transform="translate(-81.405 -16.912)" fill="#da4a54"/>
      <g id="그룹_94335" data-name="그룹 94335" transform="translate(12.942 14.073)">
        <path id="패스_40904" data-name="패스 40904" d="M0,0H9.084V9.532H0Z" transform="translate(11.926 2.418) rotate(90)" fill="#d3effb"/>
        <path id="패스_40905" data-name="패스 40905" d="M237.957,178.422h-4.27v-4.069H232.1v4.069h-4.27v1.587h4.27v4.069h1.587v-4.069h4.27Z" transform="translate(-225.733 -172.255)" fill="#da4a54"/>
        <path id="패스_40906" data-name="패스 40906" d="M219.491,153.94h-9.829a2.245,2.245,0,0,0-2.245,2.245v9.427a2.245,2.245,0,0,0,2.245,2.246h9.829a2.246,2.246,0,0,0,2.246-2.246v-9.427A2.246,2.246,0,0,0,219.491,153.94Zm-.644,11.028h-8.541v-8.137h8.541Z" transform="translate(-207.417 -153.939)" fill="#dd636e"/>
        <path id="패스_40907" data-name="패스 40907" d="M210.971,167.849h-1.312a2.245,2.245,0,0,1-2.245-2.245v-9.426a2.246,2.246,0,0,1,2.245-2.247h1.312a2.246,2.246,0,0,0-2.245,2.247V165.6A2.245,2.245,0,0,0,210.971,167.849Z" transform="translate(-207.414 -153.93)" fill="#da4a54"/>
      </g>
    </g>
    <path id="패스_40908" data-name="패스 40908" d="M159.642,267.115V277.5H129.271V261.437a6.47,6.47,0,0,1,8.245,3.149h6.179a4.654,4.654,0,0,1,3.179,8.055l.975.159Z" transform="translate(-115.994 -218.988)" fill="#dddaec"/>
    <path id="패스_40909" data-name="패스 40909" d="M75.019,336.233H95.251a16.276,16.276,0,0,0,7.165-1.662l14.761-7.238a4.86,4.86,0,0,0-4.249-8.741l-15.3,7.374-22.608-3.671" transform="translate(-67.314 -270.267)" fill="#ffddce"/>
    <path id="패스_40910" data-name="패스 40910" d="M83.644,292.273H93.782a3.832,3.832,0,0,0,2.648-1.059,4.655,4.655,0,0,0-2.956-8.252H87.3A6.468,6.468,0,0,0,75.019,285.8v10.837" transform="translate(-67.314 -235.476)" fill="#ffddce"/>
    <g id="그룹_94337" data-name="그룹 94337" transform="translate(7.704 43.86)">
      <path id="패스_40911" data-name="패스 40911" d="M173.481,348.537a4.645,4.645,0,0,1-1.7,3.6,3.831,3.831,0,0,1-2.648,1.059H158.995v-2.618h10.138a3.831,3.831,0,0,0,2.648-1.059,4.66,4.66,0,0,0,1.513-2.286,4.64,4.64,0,0,1,.186,1.308Z" transform="translate(-150.37 -340.255)" fill="#ffcbbe"/>
      <path id="패스_40912" data-name="패스 40912" d="M84.019,279.843a6.469,6.469,0,0,0-3.933,5.954v11.681l-5.067-.845V285.8a6.469,6.469,0,0,1,9-5.954Z" transform="translate(-75.019 -279.328)" fill="#ffcbbe"/>
      <path id="패스_40913" data-name="패스 40913" d="M117.174,345.752l-14.762,7.238a16.267,16.267,0,0,1-7.165,1.662H75.016v-5.628H95.248a16.282,16.282,0,0,0,7.165-1.662l14.762-7.238A4.839,4.839,0,0,0,119,338.577q.125.174.235.363A4.859,4.859,0,0,1,117.174,345.752Z" transform="translate(-75.016 -332.492)" fill="#ffcbbe"/>
    </g>
    <path id="패스_40914" data-name="패스 40914" d="M0,342.314H7.7V358H0Z" transform="translate(0 -291.986)" fill="#65a1fa"/>
    <path id="패스_40915" data-name="패스 40915" d="M0,440.291H7.7v5.628H0Z" transform="translate(0 -379.9)" fill="#4690ff"/>
  </g>
</svg>
