<svg xmlns="http://www.w3.org/2000/svg" width="102" height="100" viewBox="0 0 102 100">
  <g id="img2" transform="translate(-868 -440)">
    <rect id="사각형_8280" data-name="사각형 8280" width="102" height="100" transform="translate(868 440)" fill="none"/>
    <g id="web-analysis" transform="translate(860.898 438.239)">
      <g id="그룹_93439" data-name="그룹 93439" transform="translate(7.105 1.761)">
        <path id="패스_40564" data-name="패스 40564" d="M108.68,62.9a1.365,1.365,0,0,1-.8,1.113l-47.6,27.478a4.2,4.2,0,0,1-3.792,0l-29.545-17a1.159,1.159,0,0,1-.594-.988l-.008-1.2h-.008V72.3l-1.314-.753a1.132,1.132,0,0,1-.561-.979l-.017-3.448-15.066,8.7a.872.872,0,0,1-.937.05c.017.008.025.025.042.033l-.954-.544a.885.885,0,0,1-.368-.812L7.1,55.079V53.347a2.784,2.784,0,0,1,1.247-2.168L24.38,41.93l-.017-5.574a4.206,4.206,0,0,1,1.9-3.273L73.87,5.589a1.338,1.338,0,0,1,1.339-.117l1.8,1.046a1.3,1.3,0,0,1,.644,1.255l.008,2.787,15-8.663a.67.67,0,0,1,.695-.067l.661.385a.653.653,0,0,1,.3.628l.008,1.85h.008L94.4,27.986a2.13,2.13,0,0,1-.962,1.657l-15.7,9.064.008,3.917,30.131,17.518a1.29,1.29,0,0,1,.778,1.13c0-.008.008-.017.008-.025V61.4Z" transform="translate(-7.105 -1.761)" fill="#e4e8f4"/>
      </g>
      <g id="그룹_93753" data-name="그룹 93753" transform="translate(7.102 1.761)">
        <g id="그룹_93518" data-name="그룹 93518" transform="translate(17.26 3.581)">
          <path id="패스_40566" data-name="패스 40566" d="M80.449,7.264a1.248,1.248,0,0,0-1.342.122l-47.6,27.472a4.2,4.2,0,0,0-1.9,3.294l.1,34.841-1.318-.756a1.117,1.117,0,0,1-.561-.976l-.1-34.206a4.2,4.2,0,0,1,1.9-3.27l47.6-27.5a1.361,1.361,0,0,1,1.342-.122Z" transform="translate(-27.724 -6.04)" fill="#bac1ce"/>
          <path id="패스_40567" data-name="패스 40567" d="M79.468,7.594c1.051-.607,1.906-.12,1.91,1.088l.1,34.851L30.07,73.212l-.1-34.851a4.181,4.181,0,0,1,1.9-3.286Z" transform="translate(-28.09 -6.25)" fill="#5b5e71"/>
          <path id="패스_40568" data-name="패스 40568" d="M32.769,38.981a1.924,1.924,0,0,1,.726-1.252l46-26.559.09,31.64L32.856,69.789Z" transform="translate(-28.547 -6.876)" fill="#fff"/>
          <path id="패스_40569" data-name="패스 40569" d="M32.769,38.981a1.924,1.924,0,0,1,.726-1.252l46-26.559.011,3.585L32.777,41.734Z" transform="translate(-28.547 -6.876)" fill="#1b3d69"/>
          <path id="패스_40570" data-name="패스 40570" d="M30.1,83.893l.01,1.2a1.13,1.13,0,0,0,.59.983l29.547,17a4.167,4.167,0,0,0,3.793,0l47.6-27.478a1.351,1.351,0,0,0,.8-1.108l-.016-1.648a1.34,1.34,0,0,1-.8,1.1Z" transform="translate(-28.111 -16.93)" fill="#5b5e71"/>
          <path id="패스_40571" data-name="패스 40571" d="M111.624,70.3l-47.6,27.5a4.343,4.343,0,0,1-3.806,0L30.085,80.255,81.492,50.586,111.624,68.1a1.159,1.159,0,0,1,0,2.2Z" transform="translate(-28.109 -13.302)" fill="#e4e8f4"/>
          <path id="패스_40572" data-name="패스 40572" d="M38.588,91.7l0,.667,2.463,1.422,0-.667Z" transform="translate(-29.494 -20.005)" fill="#bac1ce"/>
          <g id="그룹_93440" data-name="그룹 93440" transform="translate(15.053 68.846)">
            <path id="패스_40573" data-name="패스 40573" d="M45.8,91.173c-.119.069-.119.178-.009.242l2.279,1.325a.47.47,0,0,0,.434,0l4.9-2.827c.111-.064.119-.178-.006-.251l-2.279-1.325a.479.479,0,0,0-.418,0Z" transform="translate(-45.709 -88.295)" fill="#bac1ce"/>
          </g>
          <g id="그룹_93441" data-name="그룹 93441" transform="translate(24.75 72.174)">
            <path id="패스_40574" data-name="패스 40574" d="M57.392,93.757c-.127.073-.127.183-.017.247l2.767,1.608a.472.472,0,0,0,.442,0l2.484-1.434c.119-.068.119-.178-.006-.251l-2.767-1.608a.465.465,0,0,0-.418,0Z" transform="translate(-57.295 -92.271)" fill="#bac1ce"/>
          </g>
          <g id="그룹_93442" data-name="그룹 93442" transform="translate(61.302 52.918)">
            <path id="패스_40575" data-name="패스 40575" d="M101.057,70.755c-.119.069-.119.178-.009.242l1.171.681a.469.469,0,0,0,.434,0l2.484-1.434c.127-.073.127-.183,0-.256l-1.171-.681a.468.468,0,0,0-.426.009Z" transform="translate(-100.967 -69.265)" fill="#bac1ce"/>
          </g>
          <g id="그룹_93443" data-name="그룹 93443" transform="translate(27.473 63.063)">
            <path id="패스_40576" data-name="패스 40576" d="M60.639,82.875c-.119.069-.119.178-.009.242l2.279,1.325a.47.47,0,0,0,.434,0l2.492-1.439c.111-.064.119-.178-.006-.251l-2.279-1.325a.479.479,0,0,0-.418,0Z" transform="translate(-60.549 -81.386)" fill="#bac1ce"/>
          </g>
          <g id="그룹_93444" data-name="그룹 93444" transform="translate(32.366 64.007)">
            <path id="패스_40577" data-name="패스 40577" d="M66.491,84c-.127.073-.127.183-.017.247l2.279,1.325a.472.472,0,0,0,.442,0l2.484-1.434c.119-.069.119-.178-.006-.251l-2.279-1.325a.465.465,0,0,0-.418,0Z" transform="translate(-66.394 -82.514)" fill="#bac1ce"/>
          </g>
          <g id="그룹_93445" data-name="그룹 93445" transform="translate(35.688 62.089)">
            <path id="패스_40578" data-name="패스 40578" d="M70.461,81.708c-.127.073-.127.183-.017.247l2.279,1.325a.472.472,0,0,0,.442,0l2.484-1.434c.119-.069.119-.178-.006-.251L73.363,80.27a.465.465,0,0,0-.418,0Z" transform="translate(-70.363 -80.222)" fill="#bac1ce"/>
          </g>
          <g id="그룹_93446" data-name="그룹 93446" transform="translate(44.063 53.484)">
            <path id="패스_40579" data-name="패스 40579" d="M80.467,71.427c-.127.073-.127.183-.017.247L82.729,73a.472.472,0,0,0,.442,0l2.484-1.434c.119-.069.119-.178-.006-.251l-2.279-1.325a.465.465,0,0,0-.418,0Z" transform="translate(-80.37 -69.941)" fill="#bac1ce"/>
          </g>
          <g id="그룹_93447" data-name="그룹 93447" transform="translate(23.535 55.249)">
            <path id="패스_40580" data-name="패스 40580" d="M55.934,73.539c-.119.069-.119.178-.009.242l1.226.713a.47.47,0,0,0,.434,0l2.492-1.439c.111-.064.119-.178-.006-.251L58.844,72.1a.479.479,0,0,0-.418,0Z" transform="translate(-55.844 -72.05)" fill="#bac1ce"/>
          </g>
          <g id="그룹_93448" data-name="그룹 93448" transform="translate(26.972 53.264)">
            <path id="패스_40581" data-name="패스 40581" d="M60.045,71.165c-.119.068-.127.183-.017.247l1.226.713a.486.486,0,0,0,.442,0l2.492-1.439c.111-.064.111-.174-.014-.247l-1.226-.713a.462.462,0,0,0-.41,0Z" transform="translate(-59.95 -69.679)" fill="#bac1ce"/>
          </g>
          <g id="그룹_93449" data-name="그룹 93449" transform="translate(30.411 51.278)">
            <path id="패스_40582" data-name="패스 40582" d="M64.156,68.792c-.127.073-.127.183-.017.247l1.226.713a.472.472,0,0,0,.442,0l2.484-1.434c.119-.069.119-.178-.006-.251l-1.226-.713a.465.465,0,0,0-.418,0Z" transform="translate(-64.058 -67.305)" fill="#bac1ce"/>
          </g>
          <g id="그룹_93450" data-name="그룹 93450" transform="translate(31.756 53.047)">
            <path id="패스_40583" data-name="패스 40583" d="M65.756,70.9a.135.135,0,0,0-.009.251l2.279,1.325a.486.486,0,0,0,.442,0l2.492-1.439c.111-.064.111-.174-.014-.247L68.666,69.47a.479.479,0,0,0-.418,0Z" transform="translate(-65.666 -69.419)" fill="#bac1ce"/>
          </g>
          <g id="그룹_93451" data-name="그룹 93451" transform="translate(35.075 51.131)">
            <path id="패스_40584" data-name="패스 40584" d="M69.717,68.617a.132.132,0,0,0,0,.247l2.279,1.325a.469.469,0,0,0,.434,0l2.492-1.439c.111-.064.119-.178-.006-.251l-2.279-1.325a.5.5,0,0,0-.426,0Z" transform="translate(-69.631 -67.13)" fill="#bac1ce"/>
          </g>
          <g id="그룹_93452" data-name="그룹 93452" transform="translate(16.657 59.22)">
            <path id="패스_40585" data-name="패스 40585" d="M47.72,78.281c-.119.069-.127.183-.017.247l1.226.713a.485.485,0,0,0,.442,0L51.862,77.8c.111-.064.111-.174-.014-.247l-1.226-.713a.462.462,0,0,0-.41,0Z" transform="translate(-47.625 -76.794)" fill="#bac1ce"/>
          </g>
          <g id="그룹_93453" data-name="그룹 93453" transform="translate(20.095 57.234)">
            <path id="패스_40586" data-name="패스 40586" d="M51.831,75.907c-.127.073-.127.183-.017.247l1.226.713a.472.472,0,0,0,.442,0l2.484-1.434c.119-.069.119-.178-.006-.251l-1.226-.713a.465.465,0,0,0-.418,0Z" transform="translate(-51.733 -74.421)" fill="#bac1ce"/>
          </g>
          <g id="그룹_93509" data-name="그룹 93509" transform="translate(8.542 39.372)">
            <g id="그룹_93454" data-name="그룹 93454" transform="translate(43.225 1.273)">
              <path id="패스_40587" data-name="패스 40587" d="M89.66,56.937a.132.132,0,0,0,0,.247l2.279,1.325a.469.469,0,0,0,.434,0l3.963-2.288c.111-.064.119-.178-.007-.251l-2.279-1.325a.5.5,0,0,0-.426,0Z" transform="translate(-89.574 -54.601)" fill="#bac1ce"/>
            </g>
            <g id="그룹_93455" data-name="그룹 93455" transform="translate(47.951 3.163)">
              <path id="패스_40588" data-name="패스 40588" d="M95.314,58.342c-.127.073-.119.187-.009.251l2.279,1.325a.472.472,0,0,0,.442,0l2.484-1.434c.111-.064.119-.178-.006-.251l-2.279-1.325a.5.5,0,0,0-.426,0Z" transform="translate(-95.221 -56.86)" fill="#bac1ce"/>
            </g>
            <g id="그룹_93456" data-name="그룹 93456" transform="translate(35.621 3.967)">
              <path id="패스_40589" data-name="패스 40589" d="M80.583,59.307c-.119.069-.127.183-.017.247l1.226.713a.485.485,0,0,0,.442,0l2.492-1.439c.111-.064.111-.174-.014-.247l-1.226-.713a.462.462,0,0,0-.41,0Z" transform="translate(-80.489 -57.821)" fill="#bac1ce"/>
            </g>
            <g id="그룹_93457" data-name="그룹 93457" transform="translate(39.799 4.1)">
              <path id="패스_40590" data-name="패스 40590" d="M85.568,59.466a.132.132,0,0,0,0,.247l2.279,1.325a.47.47,0,0,0,.434,0L90.771,59.6c.111-.064.119-.178-.006-.251l-2.279-1.325a.5.5,0,0,0-.426,0Z" transform="translate(-85.481 -57.979)" fill="#bac1ce"/>
            </g>
            <g id="그룹_93458" data-name="그룹 93458" transform="translate(44.636 5.075)">
              <path id="패스_40591" data-name="패스 40591" d="M91.354,60.628c-.127.073-.119.187-.009.251L93.624,62.2a.472.472,0,0,0,.442,0l2.484-1.434c.119-.069.119-.178-.006-.251l-2.279-1.325a.481.481,0,0,0-.426,0Z" transform="translate(-91.26 -59.145)" fill="#bac1ce"/>
            </g>
            <g id="그룹_93459" data-name="그룹 93459" transform="translate(32.185 5.95)">
              <path id="패스_40592" data-name="패스 40592" d="M76.481,61.676c-.127.073-.127.183-.017.247l1.226.713a.472.472,0,0,0,.442,0L80.615,61.2c.119-.069.119-.178-.006-.251l-1.226-.713a.465.465,0,0,0-.418,0Z" transform="translate(-76.383 -60.19)" fill="#bac1ce"/>
            </g>
            <g id="그룹_93460" data-name="그룹 93460" transform="translate(39.055 1.983)">
              <path id="패스_40593" data-name="패스 40593" d="M84.689,56.936c-.127.073-.127.183-.017.247L85.9,57.9a.472.472,0,0,0,.442,0l2.484-1.434c.119-.069.119-.178-.006-.251L87.591,55.5a.465.465,0,0,0-.418,0Z" transform="translate(-84.592 -55.45)" fill="#bac1ce"/>
            </g>
            <g id="그룹_93461" data-name="그룹 93461" transform="translate(42.49)">
              <path id="패스_40594" data-name="패스 40594" d="M88.794,54.567c-.127.073-.127.183-.017.247L90,55.526a.472.472,0,0,0,.442,0l2.484-1.434c.119-.069.119-.178-.006-.251L91.7,53.128a.465.465,0,0,0-.418,0Z" transform="translate(-88.696 -53.081)" fill="#bac1ce"/>
            </g>
            <g id="그룹_93462" data-name="그룹 93462" transform="translate(36.481 6.016)">
              <path id="패스_40595" data-name="패스 40595" d="M81.607,61.752A.135.135,0,0,0,81.6,62l2.279,1.325a.486.486,0,0,0,.442,0L86.81,61.89c.111-.064.111-.174-.014-.247l-2.279-1.325a.479.479,0,0,0-.418,0Z" transform="translate(-81.516 -60.268)" fill="#bac1ce"/>
            </g>
            <g id="그룹_93463" data-name="그룹 93463" transform="translate(48.803 5.057)">
              <path id="패스_40596" data-name="패스 40596" d="M96.329,62c-.119.069-.119.178-.009.242L98.6,63.566a.469.469,0,0,0,.434,0l4.9-2.827c.111-.064.119-.178-.007-.251l-2.279-1.325a.479.479,0,0,0-.418,0Z" transform="translate(-96.238 -59.122)" fill="#bac1ce"/>
            </g>
            <g id="그룹_93464" data-name="그룹 93464" transform="translate(41.322 6.989)">
              <path id="패스_40597" data-name="패스 40597" d="M87.393,62.915c-.127.073-.119.187-.009.251l2.279,1.325a.472.472,0,0,0,.442,0l2.484-1.434c.119-.069.119-.178-.006-.251L90.3,61.481a.481.481,0,0,0-.426,0Z" transform="translate(-87.3 -61.431)" fill="#bac1ce"/>
            </g>
            <g id="그룹_93465" data-name="그룹 93465" transform="translate(28.743 7.937)">
              <path id="패스_40598" data-name="패스 40598" d="M72.369,64.049c-.127.073-.127.183-.017.247l1.226.713a.472.472,0,0,0,.442,0L76.5,63.574c.119-.069.119-.178-.006-.251l-1.226-.713a.465.465,0,0,0-.418,0Z" transform="translate(-72.272 -62.563)" fill="#bac1ce"/>
            </g>
            <g id="그룹_93466" data-name="그룹 93466" transform="translate(33.163 7.93)">
              <path id="패스_40599" data-name="패스 40599" d="M77.646,64.039c-.127.073-.119.187-.009.251l2.279,1.325a.472.472,0,0,0,.442,0l2.484-1.434c.119-.069.119-.178-.006-.251L80.556,62.6a.481.481,0,0,0-.426,0Z" transform="translate(-77.552 -62.555)" fill="#bac1ce"/>
            </g>
            <g id="그룹_93467" data-name="그룹 93467" transform="translate(45.48 8.366)">
              <path id="패스_40600" data-name="패스 40600" d="M92.359,64.562c-.119.068-.119.178-.009.242l2.279,1.325a.469.469,0,0,0,.434,0l2.492-1.439c.111-.064.111-.174-.014-.247l-2.279-1.325a.462.462,0,0,0-.41,0Z" transform="translate(-92.269 -63.076)" fill="#bac1ce"/>
            </g>
            <g id="그룹_93468" data-name="그룹 93468" transform="translate(38.007 8.902)">
              <path id="패스_40601" data-name="패스 40601" d="M83.433,65.2c-.127.073-.119.187-.009.251L85.7,66.777a.472.472,0,0,0,.442,0l2.492-1.439c.111-.064.111-.174-.014-.247l-2.279-1.325a.479.479,0,0,0-.418,0Z" transform="translate(-83.34 -63.717)" fill="#bac1ce"/>
            </g>
            <g id="그룹_93469" data-name="그룹 93469" transform="translate(59.31 9.766)">
              <path id="패스_40602" data-name="패스 40602" d="M108.876,66.242a.127.127,0,0,0,0,.238l1.171.681a.467.467,0,0,0,.426.009l2.492-1.439c.119-.069.127-.183,0-.256l-1.171-.681a.482.482,0,0,0-.426.009Z" transform="translate(-108.792 -64.749)" fill="#bac1ce"/>
            </g>
            <g id="그룹_93470" data-name="그룹 93470" transform="translate(50.396 6.947)">
              <path id="패스_40603" data-name="패스 40603" d="M98.24,65.213c-.127.073-.127.183-.017.247l2.279,1.325a.472.472,0,0,0,.442,0L107.493,63c.111-.064.119-.178-.006-.251l-2.279-1.325a.479.479,0,0,0-.418,0Z" transform="translate(-98.142 -61.381)" fill="#bac1ce"/>
            </g>
            <g id="그룹_93471" data-name="그룹 93471" transform="translate(29.849 9.844)">
              <path id="패스_40604" data-name="패스 40604" d="M73.686,66.325c-.127.073-.119.187-.009.251L75.955,67.9a.472.472,0,0,0,.442,0l2.484-1.434c.119-.069.119-.178-.006-.251L76.6,64.891a.481.481,0,0,0-.426,0Z" transform="translate(-73.592 -64.842)" fill="#bac1ce"/>
            </g>
            <g id="그룹_93472" data-name="그룹 93472" transform="translate(42.159 10.28)">
              <path id="패스_40605" data-name="패스 40605" d="M88.4,66.849c-.127.073-.127.183-.017.247L90.66,68.42a.472.472,0,0,0,.442,0l2.484-1.434c.119-.069.119-.178-.007-.251L91.3,65.41a.465.465,0,0,0-.418,0Z" transform="translate(-88.3 -65.363)" fill="#bac1ce"/>
            </g>
            <g id="그룹_93473" data-name="그룹 93473" transform="translate(34.695 10.816)">
              <path id="패스_40606" data-name="패스 40606" d="M79.473,67.488a.135.135,0,0,0-.009.251l2.279,1.325a.485.485,0,0,0,.442,0l2.492-1.439c.111-.064.111-.174-.014-.247l-2.279-1.325a.479.479,0,0,0-.418,0Z" transform="translate(-79.383 -66.003)" fill="#bac1ce"/>
            </g>
            <g id="그룹_93474" data-name="그룹 93474" transform="translate(54.512 10.687)">
              <path id="패스_40607" data-name="패스 40607" d="M103.149,67.339c-.119.068-.119.178-.009.242l2.767,1.608a.469.469,0,0,0,.434,0l2.484-1.434c.127-.073.127-.183,0-.256L106.059,65.9a.468.468,0,0,0-.426.009Z" transform="translate(-103.059 -65.849)" fill="#bac1ce"/>
            </g>
            <g id="그룹_93475" data-name="그룹 93475" transform="translate(47.081 11.211)">
              <path id="패스_40608" data-name="패스 40608" d="M94.271,67.962c-.119.069-.119.178-.009.242l2.279,1.325a.469.469,0,0,0,.434,0l2.492-1.439c.111-.064.111-.174-.014-.247l-2.279-1.325a.462.462,0,0,0-.41,0Z" transform="translate(-94.181 -66.475)" fill="#bac1ce"/>
            </g>
            <g id="그룹_93476" data-name="그룹 93476" transform="translate(38.843 12.195)">
              <path id="패스_40609" data-name="패스 40609" d="M84.429,69.14c-.119.069-.119.178-.009.242L86.7,70.707a.469.469,0,0,0,.434,0l2.492-1.439c.111-.064.119-.178-.006-.251L87.339,67.7a.479.479,0,0,0-.418,0Z" transform="translate(-84.339 -67.651)" fill="#bac1ce"/>
            </g>
            <g id="그룹_93477" data-name="그룹 93477" transform="translate(31.385 12.727)">
              <path id="패스_40610" data-name="패스 40610" d="M75.514,69.774a.132.132,0,0,0,0,.247l2.279,1.325a.469.469,0,0,0,.434,0l2.492-1.439c.111-.064.119-.178-.006-.251l-2.279-1.325a.5.5,0,0,0-.426,0Z" transform="translate(-75.427 -68.287)" fill="#bac1ce"/>
            </g>
            <g id="그룹_93478" data-name="그룹 93478" transform="translate(43.758 13.127)">
              <path id="패스_40611" data-name="패스 40611" d="M90.3,70.254c-.119.069-.119.178-.009.242l2.279,1.325a.469.469,0,0,0,.434,0L95.5,70.386c.111-.064.119-.178-.006-.251L93.211,68.81a.479.479,0,0,0-.418,0Z" transform="translate(-90.211 -68.765)" fill="#bac1ce"/>
            </g>
            <g id="그룹_93479" data-name="그룹 93479" transform="translate(28.071 14.641)">
              <path id="패스_40612" data-name="패스 40612" d="M71.562,72.056c-.127.073-.119.187-.009.251l2.279,1.325a.472.472,0,0,0,.442,0L76.757,72.2c.111-.064.119-.178-.006-.251l-2.279-1.325a.5.5,0,0,0-.426,0Z" transform="translate(-71.468 -70.574)" fill="#bac1ce"/>
            </g>
            <g id="그룹_93480" data-name="그룹 93480" transform="translate(40.436 15.045)">
              <path id="패스_40613" data-name="패스 40613" d="M86.332,72.546c-.119.069-.119.178-.009.242L88.6,74.112a.469.469,0,0,0,.434,0l2.492-1.439c.111-.064.119-.178-.006-.251L89.242,71.1a.479.479,0,0,0-.418,0Z" transform="translate(-86.241 -71.057)" fill="#bac1ce"/>
            </g>
            <g id="그룹_93481" data-name="그룹 93481" transform="translate(19.897 15.589)">
              <path id="패스_40614" data-name="패스 40614" d="M61.8,73.19c-.127.073-.119.187-.009.251l2.279,1.325a.472.472,0,0,0,.442,0l2.484-1.434c.119-.069.119-.178-.007-.251l-2.279-1.325a.481.481,0,0,0-.426,0Z" transform="translate(-61.702 -71.707)" fill="#bac1ce"/>
            </g>
            <g id="그룹_93482" data-name="그룹 93482" transform="translate(32.206 16.027)">
              <path id="패스_40615" data-name="패스 40615" d="M76.5,73.719c-.119.069-.119.178-.009.242l2.279,1.325a.469.469,0,0,0,.434,0l2.492-1.439c.111-.064.119-.178-.006-.251l-2.279-1.325a.479.479,0,0,0-.418,0Z" transform="translate(-76.409 -72.23)" fill="#bac1ce"/>
            </g>
            <g id="그룹_93483" data-name="그룹 93483" transform="translate(24.756 16.553)">
              <path id="패스_40616" data-name="패스 40616" d="M67.6,74.342c-.127.073-.119.187-.009.251l2.279,1.325a.472.472,0,0,0,.442,0L72.8,74.483c.119-.069.119-.178-.006-.251l-2.279-1.325a.481.481,0,0,0-.426,0Z" transform="translate(-67.508 -72.858)" fill="#bac1ce"/>
            </g>
            <g id="그룹_93484" data-name="그룹 93484" transform="translate(43.625 16.319)">
              <path id="패스_40617" data-name="패스 40617" d="M90.136,74.68a.127.127,0,0,0,0,.237L92.9,76.525a.482.482,0,0,0,.426.009l3.544-2.046a.135.135,0,0,0,0-.256l-2.767-1.608a.468.468,0,0,0-.426.009Z" transform="translate(-90.052 -72.578)" fill="#bac1ce"/>
            </g>
            <g id="그룹_93485" data-name="그룹 93485" transform="translate(16.582 17.503)">
              <path id="패스_40618" data-name="패스 40618" d="M57.835,75.477c-.127.073-.119.187-.009.251L60.1,77.053a.472.472,0,0,0,.442,0l2.484-1.434c.119-.069.119-.178-.006-.251l-2.279-1.325a.481.481,0,0,0-.426,0Z" transform="translate(-57.742 -73.993)" fill="#bac1ce"/>
            </g>
            <g id="그룹_93486" data-name="그룹 93486" transform="translate(28.884 17.944)">
              <path id="패스_40619" data-name="패스 40619" d="M72.537,76.006c-.127.073-.127.183-.017.247L74.8,77.577a.472.472,0,0,0,.442,0l2.484-1.434c.119-.069.119-.178-.006-.251l-2.279-1.325a.465.465,0,0,0-.418,0Z" transform="translate(-72.44 -74.52)" fill="#bac1ce"/>
            </g>
            <g id="그룹_93487" data-name="그룹 93487" transform="translate(21.442 18.467)">
              <path id="패스_40620" data-name="패스 40620" d="M63.641,76.628c-.127.073-.119.187-.009.251L65.911,78.2a.472.472,0,0,0,.442,0l2.484-1.434c.119-.068.119-.178-.006-.251l-2.279-1.325a.481.481,0,0,0-.426,0Z" transform="translate(-63.548 -75.144)" fill="#bac1ce"/>
            </g>
            <g id="그룹_93488" data-name="그룹 93488" transform="translate(33.791 18.88)">
              <path id="패스_40621" data-name="패스 40621" d="M78.4,77.125c-.127.073-.127.183-.017.247L80.663,78.7a.472.472,0,0,0,.442,0l2.484-1.434c.119-.069.119-.178-.006-.251L81.3,75.686a.465.465,0,0,0-.418,0Z" transform="translate(-78.303 -75.638)" fill="#bac1ce"/>
            </g>
            <g id="그룹_93489" data-name="그룹 93489" transform="translate(13.266 19.421)">
              <path id="패스_40622" data-name="패스 40622" d="M53.867,77.769a.132.132,0,0,0,0,.247l2.279,1.325a.47.47,0,0,0,.434,0l2.492-1.439c.111-.064.111-.174-.014-.247l-2.279-1.325a.479.479,0,0,0-.418,0Z" transform="translate(-53.78 -76.284)" fill="#bac1ce"/>
            </g>
            <g id="그룹_93490" data-name="그룹 93490" transform="translate(25.569 19.859)">
              <path id="패스_40623" data-name="패스 40623" d="M68.569,78.3c-.119.069-.119.178-.009.242l2.279,1.325a.469.469,0,0,0,.434,0l2.492-1.439c.111-.064.119-.178-.006-.251l-2.279-1.325a.479.479,0,0,0-.418,0Z" transform="translate(-68.479 -76.808)" fill="#bac1ce"/>
            </g>
            <g id="그룹_93491" data-name="그룹 93491" transform="translate(18.13 20.381)">
              <path id="패스_40624" data-name="패스 40624" d="M59.682,78.915a.135.135,0,0,0-.009.251l2.279,1.325a.486.486,0,0,0,.442,0l2.484-1.434c.119-.069.119-.178-.006-.251l-2.279-1.325a.481.481,0,0,0-.426,0Z" transform="translate(-59.591 -77.431)" fill="#bac1ce"/>
            </g>
            <g id="그룹_93492" data-name="그룹 93492" transform="translate(30.469 20.799)">
              <path id="패스_40625" data-name="패스 40625" d="M74.431,79.416c-.127.073-.127.183-.017.247l2.279,1.325a.472.472,0,0,0,.442,0l2.484-1.434c.119-.068.119-.178-.006-.251l-2.279-1.325a.465.465,0,0,0-.418,0Z" transform="translate(-74.333 -77.93)" fill="#bac1ce"/>
            </g>
            <g id="그룹_93493" data-name="그룹 93493" transform="translate(37.114 16.962)">
              <path id="패스_40626" data-name="패스 40626" d="M82.37,74.833c-.127.073-.127.183-.017.247L84.632,76.4a.472.472,0,0,0,.442,0l2.484-1.434c.119-.069.119-.178-.006-.251l-2.279-1.325a.465.465,0,0,0-.418,0Z" transform="translate(-82.273 -73.346)" fill="#bac1ce"/>
            </g>
            <g id="그룹_93494" data-name="그룹 93494" transform="translate(9.948 21.334)">
              <path id="패스_40627" data-name="패스 40627" d="M49.905,80.055a.135.135,0,0,0-.009.251l2.279,1.325a.485.485,0,0,0,.442,0l2.492-1.439c.111-.064.111-.174-.014-.247l-2.279-1.325a.479.479,0,0,0-.418,0Z" transform="translate(-49.815 -78.571)" fill="#bac1ce"/>
            </g>
            <g id="그룹_93495" data-name="그룹 93495" transform="translate(22.247 21.776)">
              <path id="패스_40628" data-name="패스 40628" d="M64.607,80.584c-.127.073-.127.183-.017.247l2.279,1.325a.472.472,0,0,0,.442,0L69.8,80.721c.119-.069.119-.178-.006-.251l-2.279-1.325a.465.465,0,0,0-.418,0Z" transform="translate(-64.51 -79.098)" fill="#bac1ce"/>
            </g>
            <g id="그룹_93496" data-name="그룹 93496" transform="translate(11.505 24.205)">
              <path id="패스_40629" data-name="패스 40629" d="M51.762,83.487a.132.132,0,0,0,0,.247l2.279,1.325a.469.469,0,0,0,.434,0l2.492-1.439c.111-.064.119-.178-.006-.251l-2.279-1.325a.5.5,0,0,0-.426,0Z" transform="translate(-51.675 -82)" fill="#bac1ce"/>
            </g>
            <g id="그룹_93497" data-name="그룹 93497" transform="translate(3.316 25.164)">
              <path id="패스_40630" data-name="패스 40630" d="M41.984,84.629c-.127.073-.119.187-.009.251L44.254,86.2a.472.472,0,0,0,.442,0L47.18,84.77c.111-.064.119-.178-.006-.251l-2.279-1.325a.5.5,0,0,0-.426,0Z" transform="translate(-41.891 -83.146)" fill="#bac1ce"/>
            </g>
            <g id="그룹_93498" data-name="그룹 93498" transform="translate(15.61 25.608)">
              <path id="패스_40631" data-name="패스 40631" d="M56.677,85.163c-.127.073-.127.183-.017.247l2.279,1.325a.472.472,0,0,0,.442,0L61.865,85.3c.119-.069.119-.178-.006-.251l-2.279-1.325a.465.465,0,0,0-.418,0Z" transform="translate(-56.58 -83.676)" fill="#bac1ce"/>
            </g>
            <g id="그룹_93499" data-name="그룹 93499" transform="translate(8.191 26.119)">
              <path id="패스_40632" data-name="패스 40632" d="M47.81,85.769c-.127.073-.119.187-.009.251l2.279,1.325a.472.472,0,0,0,.442,0l2.484-1.434c.111-.064.119-.178-.006-.251l-2.279-1.325a.5.5,0,0,0-.426,0Z" transform="translate(-47.716 -84.287)" fill="#bac1ce"/>
            </g>
            <g id="그룹_93500" data-name="그룹 93500" transform="translate(20.501 26.553)">
              <path id="패스_40633" data-name="패스 40633" d="M62.522,86.292c-.127.073-.127.183-.017.247l2.279,1.325a.472.472,0,0,0,.442,0l2.484-1.434c.119-.068.119-.178-.006-.251l-2.279-1.325a.465.465,0,0,0-.418,0Z" transform="translate(-62.424 -84.806)" fill="#bac1ce"/>
            </g>
            <g id="그룹_93501" data-name="그룹 93501" transform="translate(27.183 18.853)">
              <path id="패스_40634" data-name="패스 40634" d="M70.5,84.706c-.119.068-.127.183-.017.247l2.767,1.608a.485.485,0,0,0,.442,0l15.671-9.048c.119-.069.119-.178-.006-.251l-2.767-1.608a.465.465,0,0,0-.418,0Z" transform="translate(-70.408 -75.606)" fill="#bac1ce"/>
            </g>
            <g id="그룹_93502" data-name="그룹 93502" transform="translate(0 27.08)">
              <path id="패스_40635" data-name="패스 40635" d="M38.016,86.92a.132.132,0,0,0,0,.247l2.279,1.325a.47.47,0,0,0,.434,0l2.492-1.439c.111-.064.111-.174-.014-.247l-2.279-1.325a.479.479,0,0,0-.418,0Z" transform="translate(-37.93 -85.436)" fill="#bac1ce"/>
            </g>
            <g id="그룹_93503" data-name="그룹 93503" transform="translate(12.295 27.523)">
              <path id="패스_40636" data-name="패스 40636" d="M52.717,87.449c-.127.073-.127.183-.017.247l2.279,1.325a.472.472,0,0,0,.442,0L57.9,87.586c.111-.064.119-.178-.007-.251l-2.279-1.325a.479.479,0,0,0-.418,0Z" transform="translate(-52.62 -85.965)" fill="#bac1ce"/>
            </g>
            <g id="그룹_93504" data-name="그룹 93504" transform="translate(17.179 28.472)">
              <path id="패스_40637" data-name="패스 40637" d="M58.552,88.584c-.127.073-.127.183-.017.247l2.279,1.325a.472.472,0,0,0,.442,0l2.484-1.434c.119-.068.119-.178-.006-.251l-2.279-1.325a.465.465,0,0,0-.418,0Z" transform="translate(-58.454 -87.098)" fill="#bac1ce"/>
            </g>
            <g id="그룹_93505" data-name="그룹 93505" transform="translate(3.254 28.086)">
              <path id="패스_40638" data-name="패스 40638" d="M41.9,89.007a.132.132,0,0,0,0,.247l2.279,1.325a.469.469,0,0,0,.434,0l4.019-2.32c.119-.069.119-.178-.006-.251l-2.279-1.325a.481.481,0,0,0-.426,0Z" transform="translate(-41.817 -86.637)" fill="#bac1ce"/>
            </g>
            <g id="그룹_93506" data-name="그룹 93506" transform="translate(22.765 28.408)">
              <path id="패스_40639" data-name="패스 40639" d="M65.219,89.12c-.119.069-.119.178-.009.242l2.767,1.608a.469.469,0,0,0,.434,0l3.544-2.046c.119-.069.119-.178-.006-.251l-2.767-1.608a.465.465,0,0,0-.418,0Z" transform="translate(-65.129 -87.022)" fill="#bac1ce"/>
            </g>
            <g id="그룹_93507" data-name="그룹 93507" transform="translate(19.399 30.96)">
              <path id="패스_40640" data-name="패스 40640" d="M61.2,91.558c-.119.069-.127.183-.017.247l2.767,1.608a.486.486,0,0,0,.442,0l2.492-1.439c.111-.064.111-.174-.014-.247L64.1,90.119a.462.462,0,0,0-.41,0Z" transform="translate(-61.107 -90.071)" fill="#bac1ce"/>
            </g>
            <g id="그룹_93508" data-name="그룹 93508" transform="translate(9.765 30.408)">
              <path id="패스_40641" data-name="패스 40641" d="M49.687,93.245c-.119.069-.119.178-.009.242l2.279,1.325a.469.469,0,0,0,.434,0l6.558-3.786c.111-.064.111-.174-.014-.247l-2.279-1.325a.462.462,0,0,0-.41,0Z" transform="translate(-49.597 -89.411)" fill="#bac1ce"/>
            </g>
          </g>
          <g id="그룹_93510" data-name="그룹 93510" transform="translate(9.779 63.19)">
            <path id="패스_40642" data-name="패스 40642" d="M39.506,83.023c-.127.073-.127.183-.017.247l1.226.713a.472.472,0,0,0,.442,0l2.484-1.434c.119-.069.119-.178-.006-.251l-1.226-.713a.465.465,0,0,0-.418,0Z" transform="translate(-39.408 -81.537)" fill="#bac1ce"/>
          </g>
          <g id="그룹_93511" data-name="그룹 93511" transform="translate(6.345 65.176)">
            <path id="패스_40643" data-name="패스 40643" d="M35.4,85.4c-.119.069-.119.178-.009.242l1.226.713a.47.47,0,0,0,.434,0l2.492-1.439c.111-.064.111-.174-.014-.247L38.3,83.958a.462.462,0,0,0-.41,0Z" transform="translate(-35.305 -83.91)" fill="#bac1ce"/>
          </g>
          <g id="그룹_93512" data-name="그룹 93512" transform="translate(13.22 61.204)">
            <path id="패스_40644" data-name="패스 40644" d="M43.617,80.65c-.127.073-.127.183-.017.247l1.226.713a.472.472,0,0,0,.442,0l2.484-1.434c.111-.064.119-.178-.006-.251l-1.226-.713a.479.479,0,0,0-.418,0Z" transform="translate(-43.52 -79.165)" fill="#bac1ce"/>
          </g>
          <g id="그룹_93513" data-name="그룹 93513" transform="translate(15.172 62.621)">
            <path id="패스_40645" data-name="패스 40645" d="M45.945,82.342c-.127.073-.119.187-.009.251l2.279,1.325a.472.472,0,0,0,.442,0l2.484-1.434c.119-.069.119-.178-.006-.251l-2.279-1.325a.481.481,0,0,0-.426,0Z" transform="translate(-45.851 -80.858)" fill="#bac1ce"/>
          </g>
          <g id="그룹_93514" data-name="그룹 93514" transform="translate(21.561 74.018)">
            <path id="패스_40646" data-name="패스 40646" d="M53.575,95.962c-.119.069-.119.178-.009.242l2.767,1.608a.469.469,0,0,0,.434,0l2.492-1.439c.111-.064.111-.174-.014-.247l-2.767-1.608a.462.462,0,0,0-.41,0Z" transform="translate(-53.485 -94.475)" fill="#bac1ce"/>
          </g>
          <g id="그룹_93515" data-name="그룹 93515" transform="translate(23.357 61.666)">
            <path id="패스_40647" data-name="패스 40647" d="M55.721,81.2a.135.135,0,0,0-.009.251l2.279,1.325a.485.485,0,0,0,.442,0l2.492-1.439c.111-.064.111-.174-.014-.247l-2.279-1.325a.479.479,0,0,0-.418,0Z" transform="translate(-55.631 -79.717)" fill="#bac1ce"/>
          </g>
          <g id="그룹_93516" data-name="그룹 93516" transform="translate(33.851 49.295)">
            <path id="패스_40648" data-name="패스 40648" d="M68.259,66.423c-.119.069-.119.178-.009.242l1.226.713a.47.47,0,0,0,.434,0L72.4,65.944c.111-.064.111-.174-.014-.247l-1.226-.713a.462.462,0,0,0-.41,0Z" transform="translate(-68.169 -64.936)" fill="#bac1ce"/>
          </g>
          <g id="그룹_93517" data-name="그룹 93517" transform="translate(4.346 68.954)">
            <path id="패스_40649" data-name="패스 40649" d="M35.77,90.073l0,.667,1.386.8,0-.667Z" transform="translate(-33.381 -88.693)" fill="#bac1ce"/>
            <path id="패스_40650" data-name="패스 40650" d="M32.921,88.424l0,.667,1.386.8,0-.667Z" transform="translate(-32.917 -88.424)" fill="#bac1ce"/>
          </g>
        </g>
        <g id="그룹_93525" data-name="그룹 93525" transform="translate(24.321 30.338)">
          <g id="그룹_93519" data-name="그룹 93519" transform="translate(0.018 4.565)">
            <path id="패스_40651" data-name="패스 40651" d="M77.7,43.462v.482L36.183,67.915v-.482Z" transform="translate(-36.182 -43.462)" fill="#4c7891"/>
          </g>
          <g id="그룹_93520" data-name="그룹 93520" transform="translate(0.024 6.085)">
            <path id="패스_40652" data-name="패스 40652" d="M77.708,45.278v.482L36.19,69.731v-.482Z" transform="translate(-36.189 -45.278)" fill="#4c7891"/>
          </g>
          <g id="그룹_93521" data-name="그룹 93521" transform="translate(0.03 7.605)">
            <path id="패스_40653" data-name="패스 40653" d="M77.715,47.094v.482L36.2,71.547v-.482Z" transform="translate(-36.196 -47.094)" fill="#4c7891"/>
          </g>
          <g id="그룹_93522" data-name="그룹 93522" transform="translate(0.012 3.04)">
            <path id="패스_40654" data-name="패스 40654" d="M77.694,41.64v.487L36.176,66.1v-.487Z" transform="translate(-36.175 -41.64)" fill="#4c7891"/>
          </g>
          <g id="그룹_93523" data-name="그룹 93523" transform="translate(0.006 1.52)">
            <path id="패스_40655" data-name="패스 40655" d="M77.686,39.824v.487L36.169,64.282v-.487Z" transform="translate(-36.167 -39.824)" fill="#4c7891"/>
          </g>
          <g id="그룹_93524" data-name="그룹 93524">
            <path id="패스_40656" data-name="패스 40656" d="M77.679,38.008v.482L36.162,62.461v-.482Z" transform="translate(-36.16 -38.008)" fill="#4c7891"/>
          </g>
        </g>
        <g id="그룹_93550" data-name="그룹 93550" transform="translate(0 33.687)">
          <path id="패스_40657" data-name="패스 40657" d="M8.489,86.29l-.954-.548a.873.873,0,0,1-.369-.805L7.109,65.46l.954.548L8.12,85.484a.885.885,0,0,0,.369.805Z" transform="translate(-7.103 -45.832)" fill="#01295e"/>
          <path id="패스_40658" data-name="패스 40658" d="M37.711,45.8l.059,19.471a2.775,2.775,0,0,1-1.252,2.169L9.569,82.994c-.7.4-1.262.078-1.264-.716L8.25,62.8Z" transform="translate(-7.289 -42.626)" fill="#1b3d69"/>
          <path id="패스_40659" data-name="패스 40659" d="M37.151,42.641a.881.881,0,0,0-.89.091L9.3,58.289a2.77,2.77,0,0,0-1.248,2.166l.006,1.73-.954-.543L7.1,59.907A2.786,2.786,0,0,1,8.35,57.74L35.307,42.183a.88.88,0,0,1,.89-.091Z" transform="translate(-7.102 -42.009)" fill="#222"/>
          <path id="패스_40660" data-name="패스 40660" d="M36.444,42.836c.7-.4,1.258-.076,1.261.718l0,1.727L8.249,62.294l0-1.731A2.761,2.761,0,0,1,9.493,58.4Z" transform="translate(-7.288 -42.116)" fill="#333"/>
          <g id="그룹_93526" data-name="그룹 93526" transform="translate(6.209 14.429)">
            <path id="패스_40661" data-name="패스 40661" d="M15.15,59.335c.351-.2.632-.039.633.361a1.388,1.388,0,0,1-.629,1.093c-.348.2-.632.036-.633-.364A1.387,1.387,0,0,1,15.15,59.335Z" transform="translate(-14.521 -59.248)" fill="#fff"/>
          </g>
          <g id="그룹_93527" data-name="그룹 93527" transform="translate(4.559 8.281)">
            <path id="패스_40662" data-name="패스 40662" d="M34.867,66.178,12.588,79.042l-.038-14.275L34.829,51.9Z" transform="translate(-12.549 -51.903)" fill="#f5f5f5"/>
          </g>
          <g id="그룹_93528" data-name="그룹 93528" transform="translate(4.311 15.525)">
            <path id="패스_40663" data-name="패스 40663" d="M12.881,60.645c.348-.2.632-.039.633.361a1.393,1.393,0,0,1-.629,1.093c-.351.2-.632.036-.633-.364A1.381,1.381,0,0,1,12.881,60.645Z" transform="translate(-12.253 -60.559)" fill="#cc961d"/>
          </g>
          <path id="패스_40664" data-name="패스 40664" d="M10.61,61.957c.351-.2.632-.039.633.361a1.388,1.388,0,0,1-.629,1.093c-.348.2-.632.036-.633-.364A1.387,1.387,0,0,1,10.61,61.957Z" transform="translate(-7.572 -45.247)" fill="#cf2346"/>
          <g id="그룹_93531" data-name="그룹 93531" transform="translate(5.98 12.81)">
            <g id="그룹_93529" data-name="그룹 93529" transform="translate(0 5.139)">
              <path id="패스_40665" data-name="패스 40665" d="M14.481,73.467l1.86,1.094,2.247-3.209,2.906.854,2.533-3.48,1.806.964,2.479-3.377,3.077.19,2.131-3.049.2.191-2.3,3.294-3.086-.191L25.8,70.2l-1.806-.964L21.486,72.68l-2.9-.854-2.28,3.258-2.06-1.218Z" transform="translate(-14.247 -63.455)" fill="#cad0dd"/>
            </g>
            <g id="그룹_93530" data-name="그룹 93530" transform="translate(0.012)">
              <path id="패스_40666" data-name="패스 40666" d="M33.49,57.314l.236.128-2.049,3.591-2.288-.621L26.5,64.605l-2.517-.543-1.795,3.043-2.547-.519-3.071,3.746L14.261,69.7l.193-.416,2.145.58,3.062-3.734,2.49.508,1.8-3.045,2.544.549,2.891-4.2,2.258.607Z" transform="translate(-14.261 -57.314)" fill="#cad0dd"/>
            </g>
          </g>
          <g id="그룹_93532" data-name="그룹 93532" transform="translate(24.784 12.587)">
            <path id="패스_40667" data-name="패스 40667" d="M37.1,57.1c.214-.124.385-.024.386.22a.846.846,0,0,1-.383.666c-.212.123-.385.022-.386-.222A.845.845,0,0,1,37.1,57.1Z" transform="translate(-36.714 -57.048)" fill="#fed57a"/>
          </g>
          <g id="그룹_93533" data-name="그룹 93533" transform="translate(23.009 15.748)">
            <path id="패스_40668" data-name="패스 40668" d="M34.976,60.878c.214-.124.385-.024.386.22a.846.846,0,0,1-.383.666c-.212.123-.385.022-.386-.222A.845.845,0,0,1,34.976,60.878Z" transform="translate(-34.593 -60.825)" fill="#f9607f"/>
          </g>
          <g id="그룹_93534" data-name="그룹 93534" transform="translate(20.745 15.253)">
            <path id="패스_40669" data-name="패스 40669" d="M32.271,60.286c.214-.124.385-.024.386.22a.846.846,0,0,1-.383.666c-.212.123-.385.022-.386-.222A.845.845,0,0,1,32.271,60.286Z" transform="translate(-31.888 -60.233)" fill="#748bfd"/>
          </g>
          <g id="그룹_93535" data-name="그룹 93535" transform="translate(17.974 19.319)">
            <path id="패스_40670" data-name="패스 40670" d="M28.96,65.144c.214-.124.385-.024.386.22a.846.846,0,0,1-.383.666c-.212.123-.385.022-.386-.222A.845.845,0,0,1,28.96,65.144Z" transform="translate(-28.577 -65.091)" fill="#4c7891"/>
          </g>
          <g id="그룹_93536" data-name="그룹 93536" transform="translate(11.041 21.441)">
            <path id="패스_40671" data-name="패스 40671" d="M20.677,67.68c.214-.124.385-.024.386.22a.846.846,0,0,1-.383.666c-.212.123-.385.022-.386-.222A.845.845,0,0,1,20.677,67.68Z" transform="translate(-20.294 -67.627)" fill="#4c7891"/>
          </g>
          <g id="그룹_93537" data-name="그룹 93537" transform="translate(15.304 18.906)">
            <path id="패스_40672" data-name="패스 40672" d="M25.77,64.651c.214-.124.385-.024.386.22a.846.846,0,0,1-.383.666c-.212.123-.385.022-.386-.222A.845.845,0,0,1,25.77,64.651Z" transform="translate(-25.387 -64.598)" fill="#f9bb4a"/>
          </g>
          <g id="그룹_93538" data-name="그룹 93538" transform="translate(13.523 21.855)">
            <path id="패스_40673" data-name="패스 40673" d="M23.643,68.174c.214-.124.385-.024.386.22a.846.846,0,0,1-.383.666c-.212.123-.385.022-.386-.222A.845.845,0,0,1,23.643,68.174Z" transform="translate(-23.26 -68.121)" fill="#f9607f"/>
          </g>
          <g id="그룹_93539" data-name="그룹 93539" transform="translate(8.029 25.015)">
            <path id="패스_40674" data-name="패스 40674" d="M17.078,71.949c.214-.124.385-.024.386.22a.846.846,0,0,1-.383.666c-.212.123-.385.022-.386-.222A.845.845,0,0,1,17.078,71.949Z" transform="translate(-16.695 -71.896)" fill="#f9607f"/>
          </g>
          <g id="그룹_93540" data-name="그룹 93540" transform="translate(5.765 24.519)">
            <path id="패스_40675" data-name="패스 40675" d="M14.374,71.357c.214-.124.385-.024.386.22a.846.846,0,0,1-.383.666c-.212.123-.385.022-.386-.222A.845.845,0,0,1,14.374,71.357Z" transform="translate(-13.99 -71.304)" fill="#68af68"/>
          </g>
          <g id="그룹_93541" data-name="그룹 93541" transform="translate(5.691 27.64)">
            <path id="패스_40676" data-name="패스 40676" d="M14.286,75.085c.214-.124.385-.024.386.22a.846.846,0,0,1-.383.666c-.212.123-.385.022-.386-.222A.845.845,0,0,1,14.286,75.085Z" transform="translate(-13.902 -75.032)" fill="#4c7891"/>
          </g>
          <g id="그룹_93542" data-name="그룹 93542" transform="translate(7.71 28.733)">
            <path id="패스_40677" data-name="패스 40677" d="M16.7,76.392c.214-.124.385-.024.386.22a.846.846,0,0,1-.383.666c-.212.123-.385.022-.386-.222A.845.845,0,0,1,16.7,76.392Z" transform="translate(-16.315 -76.338)" fill="#bac1ce"/>
          </g>
          <g id="그룹_93543" data-name="그룹 93543" transform="translate(9.875 25.654)">
            <path id="패스_40678" data-name="패스 40678" d="M19.284,72.713c.214-.124.385-.024.386.22a.846.846,0,0,1-.383.666c-.212.123-.385.022-.386-.222A.845.845,0,0,1,19.284,72.713Z" transform="translate(-18.9 -72.66)" fill="#5b5e71"/>
          </g>
          <g id="그룹_93544" data-name="그룹 93544" transform="translate(12.834 26.43)">
            <path id="패스_40679" data-name="패스 40679" d="M22.819,73.64c.214-.124.385-.024.386.22a.846.846,0,0,1-.383.666c-.212.123-.385.022-.386-.222A.845.845,0,0,1,22.819,73.64Z" transform="translate(-22.436 -73.587)" fill="#576cfb"/>
          </g>
          <g id="그룹_93545" data-name="그룹 93545" transform="translate(15.33 22.983)">
            <path id="패스_40680" data-name="패스 40680" d="M25.8,69.522c.214-.124.385-.024.386.22a.846.846,0,0,1-.383.666c-.212.123-.385.022-.386-.222A.845.845,0,0,1,25.8,69.522Z" transform="translate(-25.419 -69.469)" fill="#f9bb4a"/>
          </g>
          <g id="그룹_93546" data-name="그룹 93546" transform="translate(17.205 23.861)">
            <path id="패스_40681" data-name="패스 40681" d="M28.042,70.571c.214-.124.385-.024.386.22a.846.846,0,0,1-.383.666c-.212.123-.385.022-.386-.222A.845.845,0,0,1,28.042,70.571Z" transform="translate(-27.658 -70.518)" fill="#576cfb"/>
          </g>
          <g id="그룹_93547" data-name="그룹 93547" transform="translate(19.621 20.587)">
            <path id="패스_40682" data-name="패스 40682" d="M30.928,66.659c.214-.124.385-.024.386.22a.846.846,0,0,1-.383.666c-.212.123-.385.022-.386-.222A.845.845,0,0,1,30.928,66.659Z" transform="translate(-30.545 -66.606)" fill="#9ad898"/>
          </g>
          <g id="그룹_93548" data-name="그룹 93548" transform="translate(22.716 20.726)">
            <path id="패스_40683" data-name="패스 40683" d="M34.626,66.826c.214-.124.385-.024.386.22a.846.846,0,0,1-.383.666c-.212.123-.385.022-.386-.222A.845.845,0,0,1,34.626,66.826Z" transform="translate(-34.243 -66.773)" fill="#305766"/>
          </g>
          <g id="그룹_93549" data-name="그룹 93549" transform="translate(24.793 17.811)">
            <path id="패스_40684" data-name="패스 40684" d="M37.107,63.343c.214-.124.385-.024.386.22a.846.846,0,0,1-.383.666c-.212.123-.385.022-.386-.222a.845.845,0,0,1,.383-.664Z" transform="translate(-36.724 -63.29)" fill="#f9bb4a"/>
          </g>
        </g>
        <g id="그룹_93560" data-name="그룹 93560" transform="translate(63.998)">
          <g id="그룹_93556" data-name="그룹 93556">
            <g id="그룹_93555" data-name="그룹 93555">
              <g id="그룹_93551" data-name="그룹 93551" transform="translate(0.01 15.54)">
                <path id="패스_40685" data-name="패스 40685" d="M84.611,44.634l-.689-.4a.658.658,0,0,1-.285-.61l-.059-23.292.688.4.069,23.292a.675.675,0,0,0,.275.61Z" transform="translate(-83.578 -20.328)" fill="#cc4700"/>
              </g>
              <g id="그룹_93552" data-name="그룹 93552" transform="translate(0.699 2.93)">
                <path id="패스_40686" data-name="패스 40686" d="M106.934,5.262,107,28.556a2.122,2.122,0,0,1-.958,1.659l-20.605,11.9c-.534.308-.969.061-.97-.546L84.4,18.271Z" transform="translate(-84.401 -5.262)" fill="#e35f19"/>
                <path id="패스_40687" data-name="패스 40687" d="M85.4,19.035,106.264,6.991l.062,21.85a1.311,1.311,0,0,1-.539.932L85.47,41.5Z" transform="translate(-84.564 -5.544)" fill="#f5f5f5"/>
              </g>
              <g id="그룹_93553" data-name="그룹 93553" transform="translate(0.694 0.403)">
                <path id="패스_40688" data-name="패스 40688" d="M105.958,2.376c.534-.308.962-.064.964.542l.005,1.855L84.4,17.779,84.4,15.924a2.109,2.109,0,0,1,.958-1.652Z" transform="translate(-84.395 -2.243)" fill="#474b59"/>
              </g>
              <g id="그룹_93554" data-name="그룹 93554">
                <path id="패스_40689" data-name="패스 40689" d="M106.5,2.232a.648.648,0,0,0-.679.069L85.218,14.193a2.107,2.107,0,0,0-.964,1.652l.01,1.859-.688-.4-.01-1.859a2.123,2.123,0,0,1,.954-1.652L105.127,1.9a.665.665,0,0,1,.689-.069Z" transform="translate(-83.566 -1.761)" fill="#5b5e71"/>
              </g>
            </g>
          </g>
          <path id="패스_40690" data-name="패스 40690" d="M102.729,32.4l1.142.192,3.248-1.875v.262l-3.314,1.914-1.2-.2Z" transform="translate(-86.67 -6.482)" fill="#bac1ce"/>
          <g id="그룹_93557" data-name="그룹 93557" transform="translate(2.834 33.175)">
            <path id="패스_40691" data-name="패스 40691" d="M90.283,41.4l0,1.393-3.331,1.923,0-1.393Z" transform="translate(-86.952 -41.397)" fill="#bac1ce"/>
          </g>
          <g id="그룹_93558" data-name="그룹 93558" transform="translate(2.832 31.028)">
            <path id="패스_40692" data-name="패스 40692" d="M91.329,38.832l.129.143-1.193,1.585-3.314,1.914v-.262L90.2,40.337Z" transform="translate(-86.95 -38.832)" fill="#bac1ce"/>
          </g>
          <g id="그룹_93559" data-name="그룹 93559" transform="translate(7.201 22.274)">
            <path id="패스_40693" data-name="패스 40693" d="M102.273,28.443a14.2,14.2,0,0,1-5.661,7.1c-1.716.993-3.275,1.132-4.442.557l2.7-4.677a1.993,1.993,0,0,0,1.725-.27,5.771,5.771,0,0,0,2.282-2.778Z" transform="translate(-92.17 -28.373)" fill="#1b3d69"/>
          </g>
          <path id="패스_40694" data-name="패스 40694" d="M107.351,31.543l0,1.393-3.331,1.923,0-1.393Z" transform="translate(-86.9 -6.616)" fill="#bac1ce"/>
          <path id="패스_40695" data-name="패스 40695" d="M96.163,19.113l.012,4.39a5.877,5.877,0,0,0-2.66,4.615,1.783,1.783,0,0,0,.946,1.8l-2.694,4.672c-1.272-.635-2.072-2.112-2.079-4.259a14.279,14.279,0,0,1,6.474-11.213Z" transform="translate(-84.564 -4.59)" fill="#748bfd"/>
          <path id="패스_40696" data-name="패스 40696" d="M90.212,22.246l1.2.2-.127.291-1.137-.195L86.9,24.422V24.16Z" transform="translate(-84.109 -5.101)" fill="#bac1ce"/>
          <path id="패스_40697" data-name="패스 40697" d="M90.223,20.067l0,1.393L86.9,23.383l0-1.393Z" transform="translate(-84.108 -4.745)" fill="#bac1ce"/>
          <path id="패스_40698" data-name="패스 40698" d="M85.9,17.473c.327-.189.591-.038.592.33a1.3,1.3,0,0,1-.588,1.019c-.32.185-.585.034-.586-.341a1.291,1.291,0,0,1,.582-1.008Z" transform="translate(-83.851 -4.309)" fill="#f9607f"/>
          <path id="패스_40699" data-name="패스 40699" d="M88.012,16.251c.326-.189.585-.034.586.334a1.282,1.282,0,0,1-.582,1.016c-.327.189-.591.038-.592-.337A1.293,1.293,0,0,1,88.012,16.251Z" transform="translate(-84.195 -4.11)" fill="#fed57a"/>
          <path id="패스_40700" data-name="패스 40700" d="M90.121,15.034c.327-.189.591-.038.592.33a1.3,1.3,0,0,1-.588,1.019c-.32.185-.585.034-.586-.341a1.291,1.291,0,0,1,.582-1.008Z" transform="translate(-84.54 -3.912)" fill="#9ad898"/>
          <path id="패스_40701" data-name="패스 40701" d="M107.068,12.38v.262l-3.248,1.875-1.138,1.508-.123-.147,1.193-1.585Z" transform="translate(-86.662 -3.492)" fill="#bac1ce"/>
          <path id="패스_40702" data-name="패스 40702" d="M107.291,10.212l0,1.393-3.331,1.923,0-1.393Z" transform="translate(-86.891 -3.139)" fill="#bac1ce"/>
          <path id="패스_40703" data-name="패스 40703" d="M97.424,18.94c3.581-2.068,6.5-.408,6.516,3.713a11.6,11.6,0,0,1-.813,4.1l-3.4-.067a4.907,4.907,0,0,0,.39-1.832c0-1.693-1.21-2.38-2.684-1.529Z" transform="translate(-85.825 -4.417)" fill="#1956e3"/>
        </g>
        <g id="그룹_93784" data-name="그룹 93784" transform="translate(27.897 68.877)">
          <path id="패스_40565" data-name="패스 40565" d="M25.1,91.054l28.959,16.832v.711L30.494,122.173,1.535,105.35v-.686Z" transform="translate(-1.535 -91.054)" fill="#e4e8f4"/>
          <g id="그룹_93581" data-name="그룹 93581" transform="translate(0.003 0.001)">
            <g id="그룹_93580" data-name="그룹 93580" transform="translate(0)">
              <g id="그룹_93783" data-name="그룹 93783">
                <path id="패스_40704" data-name="패스 40704" d="M1.539,107.314V108l28.956,16.827v-.686Z" transform="translate(-1.539 -93.706)" fill="#cad0dd"/>
                <path id="패스_40705" data-name="패스 40705" d="M36.134,124.768v.686L59.7,111.874v-.713Z" transform="translate(-7.179 -94.333)" fill="#d4dae8"/>
                <path id="패스_40706" data-name="패스 40706" d="M1.539,104.663l28.956,16.827,23.569-13.608L25.108,91.056Z" transform="translate(-1.539 -91.056)" fill="#e4e8f4"/>
              </g>
              <g id="그룹_93579" data-name="그룹 93579" transform="translate(3.876 2.14)">
                <g id="그룹_93561" data-name="그룹 93561" transform="translate(32.448 14.023)">
                  <path id="패스_40707" data-name="패스 40707" d="M44.938,117.372l.991.576,12.135-7.006-.991-.576Z" transform="translate(-44.938 -110.366)" fill="#cad0dd"/>
                </g>
                <g id="그룹_93562" data-name="그룹 93562" transform="translate(27.444 4.869)">
                  <path id="패스_40708" data-name="패스 40708" d="M38.959,100.23,42.7,102.4l1.387-.8-3.742-2.175Z" transform="translate(-38.959 -99.429)" fill="#fa5168"/>
                </g>
                <g id="그룹_93563" data-name="그룹 93563" transform="translate(9.139 16.321)">
                  <path id="패스_40709" data-name="패스 40709" d="M17.089,113.91l2.982,1.733,1.382-.8-2.982-1.733Z" transform="translate(-17.089 -113.111)" fill="#bac1ce"/>
                </g>
                <g id="그룹_93578" data-name="그룹 93578">
                  <g id="그룹_93564" data-name="그룹 93564" transform="translate(22.414 6.363)">
                    <path id="패스_40710" data-name="패스 40710" d="M32.95,102.015l4.959,2.882,1.387-.8-4.959-2.882Z" transform="translate(-32.95 -101.214)" fill="#6eba6e"/>
                  </g>
                  <g id="그룹_93565" data-name="그룹 93565" transform="translate(17.661 8.018)">
                    <path id="패스_40711" data-name="패스 40711" d="M27.271,103.993l5.9,3.428,1.387-.8-5.9-3.428Z" transform="translate(-27.271 -103.192)" fill="#576cfb"/>
                  </g>
                  <g id="그룹_93566" data-name="그룹 93566">
                    <path id="패스_40712" data-name="패스 40712" d="M6.17,105.42l.991.576L27.613,94.188l-.991-.576Z" transform="translate(-6.17 -93.612)" fill="#cad0dd"/>
                  </g>
                  <g id="그룹_93567" data-name="그룹 93567" transform="translate(1.968 1.143)">
                    <path id="패스_40713" data-name="패스 40713" d="M8.521,106.786l.991.576L29.964,95.554l-.991-.576Z" transform="translate(-8.521 -94.978)" fill="#cad0dd"/>
                  </g>
                  <g id="그룹_93568" data-name="그룹 93568" transform="translate(15.046 10.919)">
                    <path id="패스_40714" data-name="패스 40714" d="M24.147,107.456l4.7,2.732,1.382-.8-4.7-2.732Z" transform="translate(-24.147 -106.657)" fill="#f9bb4a"/>
                  </g>
                  <g id="그룹_93569" data-name="그룹 93569" transform="translate(3.936 2.287)">
                    <path id="패스_40715" data-name="패스 40715" d="M10.872,108.152l.991.576L32.315,96.92l-.991-.576Z" transform="translate(-10.872 -96.344)" fill="#cad0dd"/>
                  </g>
                  <g id="그룹_93570" data-name="그룹 93570" transform="translate(10.035 12.424)">
                    <path id="패스_40716" data-name="패스 40716" d="M18.159,109.254l5.9,3.428,1.382-.8-5.9-3.428Z" transform="translate(-18.159 -108.455)" fill="#4c7891"/>
                  </g>
                  <g id="그룹_93571" data-name="그룹 93571" transform="translate(26.106 10.338)">
                    <path id="패스_40717" data-name="패스 40717" d="M37.361,112.969l.991.576,12.135-7.006-.991-.576Z" transform="translate(-37.361 -105.963)" fill="#cad0dd"/>
                  </g>
                  <g id="그룹_93572" data-name="그룹 93572" transform="translate(28.217 11.565)">
                    <path id="패스_40718" data-name="패스 40718" d="M39.883,114.435l1,.578,12.135-7.006-1-.579Z" transform="translate(-39.883 -107.429)" fill="#cad0dd"/>
                  </g>
                  <g id="그룹_93573" data-name="그룹 93573" transform="translate(13.563 7.882)">
                    <path id="패스_40719" data-name="패스 40719" d="M22.375,114.837l.991.576L43.818,103.6l-.991-.576Z" transform="translate(-22.375 -103.029)" fill="#cad0dd"/>
                  </g>
                  <g id="그룹_93574" data-name="그룹 93574" transform="translate(30.332 12.793)">
                    <path id="패스_40720" data-name="패스 40720" d="M42.411,115.9l.991.576,12.135-7.006-.991-.576Z" transform="translate(-42.411 -108.897)" fill="#cad0dd"/>
                  </g>
                  <g id="그룹_93575" data-name="그룹 93575" transform="translate(15.674 9.109)">
                    <path id="패스_40721" data-name="패스 40721" d="M24.9,116.3l1,.578,20.452-11.808-1-.578Z" transform="translate(-24.897 -104.495)" fill="#cad0dd"/>
                  </g>
                  <g id="그룹_93576" data-name="그룹 93576" transform="translate(19.839 20.542)">
                    <path id="패스_40722" data-name="패스 40722" d="M31.138,118.155c-1.6.924-1.678,2.389-.255,3.361a1.339,1.339,0,0,0,.23.155l.065.037,3.048-1.76Z" transform="translate(-29.874 -118.155)" fill="#1b3d69"/>
                  </g>
                  <g id="그룹_93577" data-name="그룹 93577" transform="translate(23.129 19.814)">
                    <path id="패스_40723" data-name="패스 40723" d="M33.8,118.013l3.088,1.794-3.043,1.757a6.707,6.707,0,0,0,6.011-.032c1.684-.972,1.693-2.547.02-3.519a6.7,6.7,0,0,0-6.076,0Z" transform="translate(-33.804 -117.285)" fill="#cad0dd"/>
                  </g>
                </g>
              </g>
            </g>
          </g>
        </g>
        <g id="그룹_93582" data-name="그룹 93582" transform="translate(27.266 32.324)">
          <path id="패스_40724" data-name="패스 40724" d="M40.309,40.468c.351-.2.632-.039.633.361a1.388,1.388,0,0,1-.629,1.093c-.348.2-.632.036-.633-.364A1.387,1.387,0,0,1,40.309,40.468Z" transform="translate(-39.68 -40.381)" fill="#fff"/>
        </g>
        <g id="그룹_93583" data-name="그룹 93583" transform="translate(25.368 33.421)">
          <path id="패스_40725" data-name="패스 40725" d="M38.04,41.778c.348-.2.632-.039.633.361a1.393,1.393,0,0,1-.629,1.093c-.351.2-.632.036-.633-.364A1.381,1.381,0,0,1,38.04,41.778Z" transform="translate(-37.411 -41.692)" fill="#fff"/>
        </g>
        <path id="패스_40726" data-name="패스 40726" d="M35.768,43.09c.351-.2.632-.039.633.361a1.388,1.388,0,0,1-.629,1.093c-.348.2-.632.036-.633-.364A1.387,1.387,0,0,1,35.768,43.09Z" transform="translate(-11.673 -8.484)" fill="#fff"/>
        <g id="그룹_93735" data-name="그룹 93735" transform="translate(31.751 29.21)">
          <g id="그룹_93734" data-name="그룹 93734">
            <g id="그룹_93588" data-name="그룹 93588" transform="translate(8.703 3.55)">
              <g id="그룹_93587" data-name="그룹 93587">
                <g id="그룹_93586" data-name="그룹 93586">
                  <g id="그룹_93585" data-name="그룹 93585">
                    <g id="그룹_93584" data-name="그룹 93584">
                      <path id="패스_40727" data-name="패스 40727" d="M57.66,40.9v.337l-2.223,1.284v-.337Z" transform="translate(-55.437 -40.902)" fill="#4c7891"/>
                    </g>
                  </g>
                </g>
              </g>
            </g>
            <g id="그룹_93593" data-name="그룹 93593" transform="translate(11.403 9.529)">
              <g id="그룹_93592" data-name="그룹 93592">
                <g id="그룹_93591" data-name="그룹 93591">
                  <g id="그룹_93590" data-name="그룹 93590">
                    <g id="그룹_93589" data-name="그룹 93589">
                      <path id="패스_40728" data-name="패스 40728" d="M59.631,48.046v.337l-.968.559V48.6Z" transform="translate(-58.662 -48.046)" fill="#4c7891"/>
                    </g>
                  </g>
                </g>
              </g>
            </g>
            <g id="그룹_93598" data-name="그룹 93598" transform="translate(9.305 8.166)">
              <g id="그룹_93597" data-name="그룹 93597">
                <g id="그룹_93596" data-name="그룹 93596">
                  <g id="그룹_93595" data-name="그룹 93595">
                    <g id="그룹_93594" data-name="그룹 93594">
                      <path id="패스_40729" data-name="패스 40729" d="M59.218,46.416v.337l-3.062,1.768v-.337Z" transform="translate(-56.156 -46.416)" fill="#4c7891"/>
                    </g>
                  </g>
                </g>
              </g>
            </g>
            <g id="그룹_93603" data-name="그룹 93603" transform="translate(10.542 6.802)">
              <g id="그룹_93602" data-name="그룹 93602">
                <g id="그룹_93601" data-name="그룹 93601">
                  <g id="그룹_93600" data-name="그룹 93600">
                    <g id="그룹_93599" data-name="그룹 93599">
                      <path id="패스_40730" data-name="패스 40730" d="M59.455,44.787v.345l-1.821,1.051v-.345Z" transform="translate(-57.634 -44.787)" fill="#4c7891"/>
                    </g>
                  </g>
                </g>
              </g>
            </g>
            <g id="그룹_93608" data-name="그룹 93608" transform="translate(8.588 5.446)">
              <g id="그룹_93607" data-name="그룹 93607">
                <g id="그룹_93606" data-name="그룹 93606">
                  <g id="그룹_93605" data-name="그룹 93605">
                    <g id="그룹_93604" data-name="그룹 93604">
                      <path id="패스_40731" data-name="패스 40731" d="M59.071,43.167V43.5L55.3,45.682v-.337Z" transform="translate(-55.299 -43.167)" fill="#4c7891"/>
                    </g>
                  </g>
                </g>
              </g>
            </g>
            <g id="그룹_93613" data-name="그룹 93613" transform="translate(6.838 4.083)">
              <g id="그룹_93612" data-name="그룹 93612">
                <g id="그룹_93611" data-name="그룹 93611">
                  <g id="그룹_93610" data-name="그룹 93610">
                    <g id="그룹_93609" data-name="그룹 93609">
                      <path id="패스_40732" data-name="패스 40732" d="M58.726,41.538v.337L53.21,45.061v-.337Z" transform="translate(-53.209 -41.538)" fill="#4c7891"/>
                    </g>
                  </g>
                </g>
              </g>
            </g>
            <g id="그룹_93618" data-name="그룹 93618" transform="translate(4.945 5.058)">
              <g id="그룹_93617" data-name="그룹 93617">
                <g id="그룹_93616" data-name="그룹 93616">
                  <g id="그룹_93615" data-name="그룹 93615">
                    <g id="그룹_93614" data-name="그룹 93614">
                      <path id="패스_40733" data-name="패스 40733" d="M54.316,42.7v.337l-3.369,1.945v-.337Z" transform="translate(-50.947 -42.704)" fill="#4c7891"/>
                    </g>
                  </g>
                </g>
              </g>
            </g>
            <g id="그룹_93623" data-name="그룹 93623" transform="translate(3.516 4.38)">
              <g id="그룹_93622" data-name="그룹 93622">
                <g id="그룹_93621" data-name="그룹 93621">
                  <g id="그룹_93620" data-name="그룹 93620">
                    <g id="그룹_93619" data-name="그룹 93619">
                      <path id="패스_40734" data-name="패스 40734" d="M52.847,41.893v.337L49.24,44.313v-.337Z" transform="translate(-49.239 -41.893)" fill="#4c7891"/>
                    </g>
                  </g>
                </g>
              </g>
            </g>
            <g id="그룹_93628" data-name="그룹 93628" transform="translate(0 4.599)">
              <g id="그룹_93627" data-name="그룹 93627">
                <g id="그룹_93626" data-name="그룹 93626">
                  <g id="그룹_93625" data-name="그룹 93625">
                    <g id="그룹_93624" data-name="그룹 93624">
                      <path id="패스_40735" data-name="패스 40735" d="M49.417,42.155v.337L45.039,45.02v-.337Z" transform="translate(-45.038 -42.155)" fill="#4c7891"/>
                    </g>
                  </g>
                </g>
              </g>
            </g>
            <g id="그룹_93633" data-name="그룹 93633" transform="translate(11.513 2.727)">
              <g id="그룹_93632" data-name="그룹 93632">
                <g id="그룹_93631" data-name="그룹 93631">
                  <g id="그룹_93630" data-name="그룹 93630">
                    <g id="그룹_93629" data-name="그룹 93629">
                      <path id="패스_40736" data-name="패스 40736" d="M59.633,39.918v.337l-.839.484V40.4Z" transform="translate(-58.794 -39.918)" fill="#4c7891"/>
                    </g>
                  </g>
                </g>
              </g>
            </g>
            <g id="그룹_93638" data-name="그룹 93638" transform="translate(7.581 1.364)">
              <g id="그룹_93637" data-name="그룹 93637">
                <g id="그룹_93636" data-name="그룹 93636">
                  <g id="그룹_93635" data-name="그룹 93635">
                    <g id="그룹_93634" data-name="그룹 93634">
                      <path id="패스_40737" data-name="패스 40737" d="M58.863,38.289v.337L54.1,41.379v-.337Z" transform="translate(-54.096 -38.289)" fill="#4c7891"/>
                    </g>
                  </g>
                </g>
              </g>
            </g>
            <g id="그룹_93643" data-name="그룹 93643" transform="translate(10.339)">
              <g id="그룹_93642" data-name="그룹 93642">
                <g id="그룹_93641" data-name="그룹 93641">
                  <g id="그룹_93640" data-name="그룹 93640">
                    <g id="그룹_93639" data-name="그룹 93639">
                      <path id="패스_40738" data-name="패스 40738" d="M59.4,36.66V37l-2.005,1.158v-.337Z" transform="translate(-57.391 -36.66)" fill="#4c7891"/>
                    </g>
                  </g>
                </g>
              </g>
            </g>
            <g id="그룹_93648" data-name="그룹 93648" transform="translate(4.815 1.516)">
              <g id="그룹_93647" data-name="그룹 93647">
                <g id="그룹_93646" data-name="그룹 93646">
                  <g id="그룹_93645" data-name="그룹 93645">
                    <g id="그룹_93644" data-name="그룹 93644">
                      <path id="패스_40739" data-name="패스 40739" d="M55.695,38.471v.337l-4.9,2.831V41.3Z" transform="translate(-50.791 -38.471)" fill="#4c7891"/>
                    </g>
                  </g>
                </g>
              </g>
            </g>
            <g id="그룹_93653" data-name="그룹 93653" transform="translate(6.403 8.169)">
              <g id="그룹_93652" data-name="그룹 93652">
                <g id="그룹_93651" data-name="그룹 93651">
                  <g id="그룹_93650" data-name="그룹 93650">
                    <g id="그룹_93649" data-name="그룹 93649">
                      <path id="패스_40740" data-name="패스 40740" d="M56.282,46.42v.345L52.689,48.84v-.345Z" transform="translate(-52.688 -46.42)" fill="#4c7891"/>
                    </g>
                  </g>
                </g>
              </g>
            </g>
            <g id="그룹_93658" data-name="그룹 93658" transform="translate(5.042 7.923)">
              <g id="그룹_93657" data-name="그룹 93657">
                <g id="그룹_93656" data-name="그룹 93656">
                  <g id="그룹_93655" data-name="그룹 93655">
                    <g id="그룹_93654" data-name="그룹 93654">
                      <path id="패스_40741" data-name="패스 40741" d="M54.09,46.127v.337l-3.028,1.748v-.337Z" transform="translate(-51.062 -46.127)" fill="#4c7891"/>
                    </g>
                  </g>
                </g>
              </g>
            </g>
            <g id="그룹_93663" data-name="그룹 93663" transform="translate(0.012 10.21)">
              <g id="그룹_93662" data-name="그룹 93662">
                <g id="그룹_93661" data-name="그룹 93661">
                  <g id="그룹_93660" data-name="그룹 93660">
                    <g id="그룹_93659" data-name="그룹 93659">
                      <path id="패스_40742" data-name="패스 40742" d="M46.784,48.859V49.2l-1.732,1v-.337Z" transform="translate(-45.052 -48.859)" fill="#4c7891"/>
                    </g>
                  </g>
                </g>
              </g>
            </g>
            <g id="그룹_93668" data-name="그룹 93668" transform="translate(4.879 10.205)">
              <g id="그룹_93667" data-name="그룹 93667">
                <g id="그룹_93666" data-name="그룹 93666">
                  <g id="그룹_93665" data-name="그룹 93665">
                    <g id="그룹_93664" data-name="그룹 93664">
                      <path id="패스_40743" data-name="패스 40743" d="M54.823,48.853v.337l-3.956,2.284v-.337Z" transform="translate(-50.868 -48.853)" fill="#4c7891"/>
                    </g>
                  </g>
                </g>
              </g>
            </g>
            <g id="그룹_93673" data-name="그룹 93673" transform="translate(2.966 10.452)">
              <g id="그룹_93672" data-name="그룹 93672">
                <g id="그룹_93671" data-name="그룹 93671">
                  <g id="그룹_93670" data-name="그룹 93670">
                    <g id="그룹_93669" data-name="그룹 93669">
                      <path id="패스_40744" data-name="패스 40744" d="M51.657,49.148v.345l-3.076,1.776v-.345Z" transform="translate(-48.581 -49.148)" fill="#4c7891"/>
                    </g>
                  </g>
                </g>
              </g>
            </g>
            <g id="그룹_93678" data-name="그룹 93678" transform="translate(3.925 13.035)">
              <g id="그룹_93677" data-name="그룹 93677">
                <g id="그룹_93676" data-name="그룹 93676">
                  <g id="그룹_93675" data-name="그룹 93675">
                    <g id="그룹_93674" data-name="그룹 93674">
                      <path id="패스_40745" data-name="패스 40745" d="M54.454,52.234v.345l-4.726,2.729v-.345Z" transform="translate(-49.728 -52.234)" fill="#4c7891"/>
                    </g>
                  </g>
                </g>
              </g>
            </g>
            <g id="그룹_93683" data-name="그룹 93683" transform="translate(2.4 13.357)">
              <g id="그룹_93682" data-name="그룹 93682">
                <g id="그룹_93681" data-name="그룹 93681">
                  <g id="그룹_93680" data-name="그룹 93680">
                    <g id="그룹_93679" data-name="그룹 93679">
                      <path id="패스_40746" data-name="패스 40746" d="M51.248,52.618v.337l-3.342,1.929v-.337Z" transform="translate(-47.906 -52.618)" fill="#4c7891"/>
                    </g>
                  </g>
                </g>
              </g>
            </g>
            <g id="그룹_93688" data-name="그룹 93688" transform="translate(0.019 12.48)">
              <g id="그룹_93687" data-name="그룹 93687">
                <g id="그룹_93686" data-name="그룹 93686">
                  <g id="그룹_93685" data-name="그룹 93685">
                    <g id="그룹_93684" data-name="그룹 93684">
                      <path id="패스_40747" data-name="패스 40747" d="M47.571,51.571v.345l-2.51,1.449V53.02Z" transform="translate(-45.061 -51.571)" fill="#4c7891"/>
                    </g>
                  </g>
                </g>
              </g>
            </g>
            <g id="그룹_93693" data-name="그룹 93693" transform="translate(0.015 9.817)">
              <g id="그룹_93692" data-name="그룹 93692">
                <g id="그룹_93691" data-name="그룹 93691">
                  <g id="그룹_93690" data-name="그룹 93690">
                    <g id="그룹_93689" data-name="그룹 93689">
                      <path id="패스_40748" data-name="패스 40748" d="M49.831,48.389v.337l-4.774,2.756v-.337Z" transform="translate(-45.057 -48.389)" fill="#4c7891"/>
                    </g>
                  </g>
                </g>
              </g>
            </g>
            <g id="그룹_93698" data-name="그룹 93698" transform="translate(2.33 7.717)">
              <g id="그룹_93697" data-name="그룹 93697">
                <g id="그룹_93696" data-name="그룹 93696">
                  <g id="그룹_93695" data-name="그룹 93695">
                    <g id="그룹_93694" data-name="그룹 93694">
                      <path id="패스_40749" data-name="패스 40749" d="M51.553,45.881v.337l-3.731,2.154v-.337Z" transform="translate(-47.823 -45.881)" fill="#4c7891"/>
                    </g>
                  </g>
                </g>
              </g>
            </g>
            <g id="그룹_93703" data-name="그룹 93703" transform="translate(0.008 7.425)">
              <g id="그룹_93702" data-name="그룹 93702">
                <g id="그룹_93701" data-name="그룹 93701">
                  <g id="그룹_93700" data-name="그룹 93700">
                    <g id="그룹_93699" data-name="그룹 93699">
                      <path id="패스_40750" data-name="패스 40750" d="M49.255,45.531v.337L45.049,48.3V47.96Z" transform="translate(-45.048 -45.531)" fill="#4c7891"/>
                    </g>
                  </g>
                </g>
              </g>
            </g>
            <g id="그룹_93708" data-name="그룹 93708" transform="translate(0.004 6.797)">
              <g id="그룹_93707" data-name="그룹 93707">
                <g id="그룹_93706" data-name="그룹 93706">
                  <g id="그룹_93705" data-name="그룹 93705">
                    <g id="그룹_93704" data-name="그룹 93704">
                      <path id="패스_40751" data-name="패스 40751" d="M47.976,44.782v.337l-2.933,1.693v-.337Z" transform="translate(-45.043 -44.782)" fill="#4c7891"/>
                    </g>
                  </g>
                </g>
              </g>
            </g>
            <g id="그룹_93713" data-name="그룹 93713" transform="translate(0.023 12.981)">
              <g id="그룹_93712" data-name="그룹 93712">
                <g id="그룹_93711" data-name="그룹 93711">
                  <g id="그룹_93710" data-name="그룹 93710">
                    <g id="그룹_93709" data-name="그룹 93709">
                      <path id="패스_40752" data-name="패스 40752" d="M49.069,52.17v.337l-4,2.311v-.337Z" transform="translate(-45.066 -52.17)" fill="#4c7891"/>
                    </g>
                  </g>
                </g>
              </g>
            </g>
            <g id="그룹_93718" data-name="그룹 93718" transform="translate(0.027 15.735)">
              <g id="그룹_93717" data-name="그룹 93717">
                <g id="그룹_93716" data-name="그룹 93716">
                  <g id="그룹_93715" data-name="그룹 93715">
                    <g id="그룹_93714" data-name="그룹 93714">
                      <path id="패스_40753" data-name="패스 40753" d="M46.666,55.46V55.8l-1.6.921v-.337Z" transform="translate(-45.071 -55.46)" fill="#4c7891"/>
                    </g>
                  </g>
                </g>
              </g>
            </g>
            <g id="그룹_93723" data-name="그룹 93723" transform="translate(9.402 10.885)">
              <g id="그룹_93722" data-name="그룹 93722">
                <g id="그룹_93721" data-name="그룹 93721">
                  <g id="그룹_93720" data-name="그룹 93720">
                    <g id="그룹_93719" data-name="그룹 93719">
                      <path id="패스_40754" data-name="패스 40754" d="M59.245,49.666v.345l-2.974,1.717v-.345Z" transform="translate(-56.271 -49.666)" fill="#4c7891"/>
                    </g>
                  </g>
                </g>
              </g>
            </g>
            <g id="그룹_93728" data-name="그룹 93728" transform="translate(6.588 10.305)">
              <g id="그룹_93727" data-name="그룹 93727">
                <g id="그룹_93726" data-name="그룹 93726">
                  <g id="그룹_93725" data-name="그룹 93725">
                    <g id="그룹_93724" data-name="그룹 93724">
                      <path id="패스_40755" data-name="패스 40755" d="M57.349,48.973v.337l-4.44,2.563v-.337Z" transform="translate(-52.909 -48.973)" fill="#4c7891"/>
                    </g>
                  </g>
                </g>
              </g>
            </g>
            <g id="그룹_93733" data-name="그룹 93733" transform="translate(0.031 16.276)">
              <g id="그룹_93732" data-name="그룹 93732">
                <g id="그룹_93731" data-name="그룹 93731">
                  <g id="그룹_93730" data-name="그룹 93730">
                    <g id="그룹_93729" data-name="그룹 93729">
                      <path id="패스_40756" data-name="패스 40756" d="M48.083,56.106v.345l-3.008,1.736v-.345Z" transform="translate(-45.075 -56.106)" fill="#4c7891"/>
                    </g>
                  </g>
                </g>
              </g>
            </g>
          </g>
        </g>
        <g id="그룹_93752" data-name="그룹 93752" transform="translate(46.384 19.211)">
          <g id="그룹_93737" data-name="그룹 93737" transform="translate(13.773 3.063)">
            <g id="그룹_93736" data-name="그룹 93736">
              <path id="패스_40757" data-name="패스 40757" d="M78.977,29.584,79,37.568l2.1-1.21-.023-7.983Z" transform="translate(-78.977 -28.374)" fill="#6eba6e"/>
            </g>
          </g>
          <g id="그룹_93739" data-name="그룹 93739" transform="translate(9.169)">
            <g id="그룹_93738" data-name="그룹 93738">
              <path id="패스_40758" data-name="패스 40758" d="M73.476,25.924l0,.964,2.1-1.21,0-.964Z" transform="translate(-73.476 -24.714)" fill="#748bfd"/>
            </g>
          </g>
          <g id="그룹_93741" data-name="그룹 93741" transform="translate(9.174 1.954)">
            <g id="그룹_93740" data-name="그룹 93740">
              <path id="패스_40759" data-name="패스 40759" d="M73.483,28.259,73.516,40l2.1-1.21-.033-11.741Z" transform="translate(-73.483 -27.049)" fill="#748bfd"/>
            </g>
          </g>
          <g id="그룹_93743" data-name="그룹 93743" transform="translate(4.592 6.407)">
            <g id="그룹_93742" data-name="그룹 93742">
              <path id="패스_40760" data-name="패스 40760" d="M68.007,33.579l0,.977,2.1-1.21,0-.977Z" transform="translate(-68.007 -32.368)" fill="#4c7891"/>
            </g>
          </g>
          <g id="그룹_93745" data-name="그룹 93745" transform="translate(4.597 8.361)">
            <g id="그룹_93744" data-name="그룹 93744">
              <path id="패스_40761" data-name="패스 40761" d="M68.014,35.914l.023,7.983,2.1-1.21L70.11,34.7Z" transform="translate(-68.014 -34.704)" fill="#4c7891"/>
            </g>
          </g>
          <g id="그룹_93747" data-name="그룹 93747" transform="translate(0.006 9.689)">
            <g id="그룹_93746" data-name="그룹 93746">
              <path id="패스_40762" data-name="패스 40762" d="M62.528,37.5l.026,9.3,2.1-1.21-.026-9.3Z" transform="translate(-62.528 -36.29)" fill="#bac1ce"/>
            </g>
          </g>
          <g id="그룹_93749" data-name="그룹 93749" transform="translate(0 7.734)">
            <g id="그룹_93748" data-name="그룹 93748">
              <path id="패스_40763" data-name="패스 40763" d="M62.521,35.165l0,.977,2.1-1.21,0-.977Z" transform="translate(-62.521 -33.954)" fill="#bac1ce"/>
            </g>
          </g>
          <g id="그룹_93751" data-name="그룹 93751" transform="translate(13.767 1.109)">
            <g id="그룹_93750" data-name="그룹 93750">
              <path id="패스_40764" data-name="패스 40764" d="M78.97,27.249l0,.977,2.1-1.21,0-.977Z" transform="translate(-78.97 -26.039)" fill="#6eba6e"/>
            </g>
          </g>
        </g>
      </g>
    </g>
  </g>
</svg>
