<svg xmlns="http://www.w3.org/2000/svg" width="100" height="100" viewBox="0 0 100 100">
  <g id="img3" transform="translate(-1156 -447)">
    <rect id="사각형_8279" data-name="사각형 8279" width="100" height="100" transform="translate(1156 447)" fill="none"/>
    <g id="pattern-lock" transform="translate(1159.682 445.001)">
      <g id="그룹_93766" data-name="그룹 93766" transform="translate(11.318 1.999)">
        <g id="그룹_93757" data-name="그룹 93757">
          <g id="그룹_93754" data-name="그룹 93754">
            <path id="패스_40765" data-name="패스 40765" d="M23.869,3.393v9.744a1.411,1.411,0,0,1-1.394,1.413H12.712a1.411,1.411,0,0,1-1.395-1.413V3.393A1.4,1.4,0,0,1,12.712,2h9.763a1.4,1.4,0,0,1,1.394,1.395Z" transform="translate(-11.318 -1.999)" fill="#e9e9ff"/>
          </g>
          <g id="그룹_93755" data-name="그룹 93755" transform="translate(18.42)">
            <path id="패스_40766" data-name="패스 40766" d="M35.658,3.393v9.744a1.411,1.411,0,0,1-1.394,1.413H24.5a1.411,1.411,0,0,1-1.395-1.413V3.393A1.4,1.4,0,0,1,24.5,2h9.763a1.4,1.4,0,0,1,1.394,1.395Z" transform="translate(-23.107 -1.999)" fill="#e9e9ff"/>
          </g>
          <g id="그룹_93756" data-name="그룹 93756" transform="translate(36.84)">
            <path id="패스_40767" data-name="패스 40767" d="M47.447,3.393v9.744a1.411,1.411,0,0,1-1.394,1.413H36.291A1.411,1.411,0,0,1,34.9,13.138V3.393A1.4,1.4,0,0,1,36.291,2h9.763a1.4,1.4,0,0,1,1.394,1.395Z" transform="translate(-34.896 -1.999)" fill="#e9e9ff"/>
          </g>
        </g>
        <g id="그룹_93761" data-name="그룹 93761" transform="translate(0 18.89)">
          <g id="그룹_93758" data-name="그룹 93758">
            <path id="패스_40768" data-name="패스 40768" d="M23.869,15.483v9.744a1.411,1.411,0,0,1-1.394,1.413H12.712a1.411,1.411,0,0,1-1.395-1.413V15.483a1.4,1.4,0,0,1,1.395-1.395h9.763a1.4,1.4,0,0,1,1.394,1.395Z" transform="translate(-11.318 -14.089)" fill="#e9e9ff"/>
          </g>
          <g id="그룹_93759" data-name="그룹 93759" transform="translate(18.42)">
            <path id="패스_40769" data-name="패스 40769" d="M35.658,15.483v9.744a1.411,1.411,0,0,1-1.394,1.413H24.5a1.411,1.411,0,0,1-1.395-1.413V15.483A1.4,1.4,0,0,1,24.5,14.089h9.763a1.4,1.4,0,0,1,1.394,1.395Z" transform="translate(-23.107 -14.089)" fill="#e9e9ff"/>
          </g>
          <g id="그룹_93760" data-name="그룹 93760" transform="translate(36.84)">
            <path id="패스_40770" data-name="패스 40770" d="M47.447,15.483v9.744a1.411,1.411,0,0,1-1.394,1.413H36.291A1.411,1.411,0,0,1,34.9,25.228V15.483a1.4,1.4,0,0,1,1.395-1.395h9.763a1.4,1.4,0,0,1,1.394,1.395Z" transform="translate(-34.896 -14.089)" fill="#1b3d69"/>
          </g>
        </g>
        <g id="그룹_93765" data-name="그룹 93765" transform="translate(0 37.78)">
          <g id="그룹_93762" data-name="그룹 93762">
            <path id="패스_40771" data-name="패스 40771" d="M23.869,27.573v9.744a1.411,1.411,0,0,1-1.394,1.413H12.712a1.411,1.411,0,0,1-1.395-1.413V27.573a1.4,1.4,0,0,1,1.395-1.395h9.763a1.4,1.4,0,0,1,1.394,1.395Z" transform="translate(-11.318 -26.179)" fill="#f56a20"/>
          </g>
          <g id="그룹_93763" data-name="그룹 93763" transform="translate(18.42)">
            <path id="패스_40772" data-name="패스 40772" d="M35.658,27.573v9.744a1.411,1.411,0,0,1-1.394,1.413H24.5a1.411,1.411,0,0,1-1.395-1.413V27.573A1.4,1.4,0,0,1,24.5,26.179h9.763a1.4,1.4,0,0,1,1.394,1.395Z" transform="translate(-23.107 -26.179)" fill="#0a3e8b"/>
          </g>
          <g id="그룹_93764" data-name="그룹 93764" transform="translate(36.84)">
            <path id="패스_40773" data-name="패스 40773" d="M47.447,27.573v9.744a1.411,1.411,0,0,1-1.394,1.413H36.291A1.411,1.411,0,0,1,34.9,37.318V27.573a1.4,1.4,0,0,1,1.395-1.395h9.763a1.4,1.4,0,0,1,1.394,1.395Z" transform="translate(-34.896 -26.179)" fill="#6394d4"/>
          </g>
        </g>
      </g>
      <g id="그룹_93775" data-name="그룹 93775" transform="translate(38.117 23.887)">
        <g id="그룹_93774" data-name="그룹 93774">
          <g id="그룹_93767" data-name="그룹 93767" transform="translate(11.972 53.102)">
            <path id="패스_40774" data-name="패스 40774" d="M50.932,49.994c8.173,0,14.8,2.245,14.8,5.012s-6.624,5.012-14.8,5.012-14.8-2.245-14.8-5.012,6.628-5.012,14.8-5.012Z" transform="translate(-36.132 -49.994)" fill="#1b3d69"/>
          </g>
          <g id="그룹_93773" data-name="그룹 93773">
            <g id="그룹_93768" data-name="그룹 93768">
              <path id="패스_40775" data-name="패스 40775" d="M72.55,38.729V58.44A11.87,11.87,0,0,1,70.364,65.3l-3.227,4.548V80.536H43.59V69.852c-3.773-2.565-9.2-12.873-14.681-23.413a3.9,3.9,0,0,1,6.849-3.723l5.255,9.264V19.95a3.942,3.942,0,0,1,7.884,0V33.566a3.942,3.942,0,0,1,7.884,0v3a3.942,3.942,0,1,1,7.884,0v2.272a4.117,4.117,0,0,1,1.3-3.008,3.847,3.847,0,0,1,2.361-1.031,3.945,3.945,0,0,1,4.219,3.934Z" transform="translate(-28.47 -16.008)" fill="#ffcbba"/>
            </g>
            <g id="그룹_93772" data-name="그룹 93772" transform="translate(20.428 14.632)">
              <g id="그룹_93769" data-name="그룹 93769">
                <path id="패스_40776" data-name="패스 40776" d="M42.849,25.372V37.417a.652.652,0,0,1-.652.652h0a.651.651,0,0,1-.652-.652V28.3A3.924,3.924,0,0,1,42.849,25.372Z" transform="translate(-41.544 -25.372)" fill="#efb7a8"/>
              </g>
              <g id="그룹_93770" data-name="그룹 93770" transform="translate(7.884 2.994)">
                <path id="패스_40777" data-name="패스 40777" d="M47.895,27.288V39.679a.651.651,0,0,1-.652.652h0a.651.651,0,0,1-.652-.652V30.215a3.93,3.93,0,0,1,1.3-2.927Z" transform="translate(-46.59 -27.288)" fill="#efb7a8"/>
              </g>
              <g id="그룹_93771" data-name="그룹 93771" transform="translate(15.768 5.186)">
                <path id="패스_40778" data-name="패스 40778" d="M52.941,28.691v8.9a.652.652,0,0,1-.652.652h0a.652.652,0,0,1-.652-.652V31.7A4.119,4.119,0,0,1,52.941,28.691Z" transform="translate(-51.636 -28.691)" fill="#efb7a8"/>
              </g>
            </g>
          </g>
        </g>
      </g>
      <g id="그룹_93779" data-name="그룹 93779" transform="translate(39.975 23.892)" opacity="0.2">
        <g id="그룹_93776" data-name="그룹 93776">
          <path id="패스_40779" data-name="패스 40779" d="M42.924,80.539V69.852c-1.844-1.25-4.062-4.312-6.484-8.359a.015.015,0,0,1-.016-.016l-6.765-20.14a3.7,3.7,0,0,1,2.031-.594A3.926,3.926,0,0,1,35.1,42.713l5.25,9.265V19.948a3.941,3.941,0,0,1,3.937-3.937H44.3l3.922,11.64v5.906A3.887,3.887,0,0,1,49.3,30.87L66.017,80.54H42.924Z" transform="translate(-29.659 -16.011)" fill="#fff"/>
        </g>
        <g id="그룹_93778" data-name="그룹 93778" transform="translate(26.905 16.609)">
          <path id="패스_40781" data-name="패스 40781" d="M62.05,54.3A11.846,11.846,0,0,1,60,59.327l-1.922,2.719-11.2-33.28a3.719,3.719,0,0,1,.859-1.109,3.821,3.821,0,0,1,2.625-1.015,3.924,3.924,0,0,1,2.766,1.125L54.316,31.3l.156.469Z" transform="translate(-46.879 -26.641)" fill="#fff"/>
        </g>
      </g>
      <g id="그룹_93781" data-name="그룹 93781" transform="translate(50.089 82.001)">
        <g id="그룹_93780" data-name="그룹 93780">
          <path id="패스_40782" data-name="패스 40782" d="M36.132,68.188c0,2.767,6.628,5.012,14.8,5.012s14.8-2.245,14.8-5.012V53.2c0,2.767-6.624,5.012-14.8,5.012s-14.8-2.245-14.8-5.012Z" transform="translate(-36.132 -53.202)" fill="#244a7b"/>
        </g>
      </g>
      <g id="그룹_93782" data-name="그룹 93782" transform="translate(52.361 88.415)">
        <path id="패스_40783" data-name="패스 40783" d="M39.406,57.307a1.814,1.814,0,1,1-1.819,1.808,1.815,1.815,0,0,1,1.819-1.808Z" transform="translate(-37.587 -57.307)" fill="#fff"/>
      </g>
    </g>
  </g>
</svg>
